<svg version="1.1" id="Layer_1" xmlns="http://www.w3.org/2000/svg" xmlns:xlink="http://www.w3.org/1999/xlink" x="0px" y="0px"
	 width="100%" viewBox="0 0 1366 768" enable-background="new 0 0 1366 768" xml:space="preserve">
<path fill="#275B62" opacity="1.000000" stroke="none" 
	d="
M1269.000000,769.000000 
	C846.000000,769.000000 423.500000,769.000000 1.000000,769.000000 
	C1.000000,513.000000 1.000000,257.000000 1.000000,1.000000 
	C456.333344,1.000000 911.666687,1.000000 1367.000000,1.000000 
	C1367.000000,257.000000 1367.000000,513.000000 1367.000000,769.000000 
	C1334.500000,769.000000 1302.000000,769.000000 1269.000000,769.000000 
M837.100281,450.244049 
	C840.910583,442.897644 844.699768,435.540131 848.543640,428.211334 
	C849.766296,425.880219 850.957581,423.656311 846.145203,421.581421 
	C843.030151,428.310303 839.904724,435.061615 836.254883,442.258179 
	C831.976501,453.795746 827.698120,465.333313 823.560425,477.554016 
	C823.975952,477.590607 824.391418,477.627167 824.746216,477.698303 
	C824.746216,477.698303 824.713074,477.636566 823.823853,477.840546 
	C821.710815,484.556671 824.076172,490.571106 829.004456,491.013123 
	C833.529358,491.418976 845.828186,483.053406 847.298584,478.569550 
	C848.428772,475.123199 852.308960,472.810822 855.337219,474.569489 
	C858.825439,476.226990 862.313599,477.884460 866.127869,479.696838 
	C865.197144,484.415253 863.873413,490.057007 863.033325,495.769867 
	C862.493774,499.439056 864.209229,502.939148 867.884644,503.354156 
	C870.321899,503.629364 873.816101,502.099182 875.501648,500.195007 
	C883.686401,490.948486 882.451355,482.011261 871.745605,473.865326 
	C879.584534,468.898773 887.383423,465.226776 896.549561,464.961060 
	C897.721191,472.207489 900.359253,474.840363 905.523682,474.353516 
	C913.913757,473.562622 927.869629,461.821930 930.228760,453.503387 
	C925.822876,457.356903 921.669983,461.420013 917.079041,464.906464 
	C909.637451,470.557770 906.322693,471.516693 901.476868,470.259644 
	C903.613892,468.950165 905.675537,467.896545 907.490540,466.518219 
	C909.460815,465.021912 911.475098,463.438293 912.987122,461.513367 
	C916.466187,457.084351 914.295837,451.581696 908.739746,451.545715 
	C906.579956,451.531738 903.550537,453.907043 902.404968,456.005981 
	C899.830322,460.723114 896.236938,462.434296 891.116394,463.141968 
	C885.982727,463.851532 881.027527,465.852173 875.994080,467.286926 
	C875.576965,466.959229 875.159851,466.631561 874.742737,466.303894 
	C881.301025,454.097351 887.859253,441.890839 894.417542,429.684296 
	C893.920471,429.260437 893.423462,428.836578 892.926453,428.412689 
	C891.326355,430.081604 889.350464,431.526184 888.195801,433.460907 
	C884.532654,439.598633 881.523865,446.148010 877.606873,452.107513 
	C873.341553,458.596710 868.436584,464.678131 863.598572,470.769012 
	C862.399475,472.278656 860.381592,473.138000 858.740051,474.296234 
	C858.244263,471.848236 858.406799,470.017670 859.098938,468.416016 
	C860.875977,464.303894 863.015869,460.345886 864.717957,456.205902 
	C865.152832,455.148102 864.498657,453.642548 864.344788,452.342682 
	C863.213623,452.985565 861.488892,453.357758 861.051453,454.317017 
	C858.853088,459.137695 856.990967,464.111725 854.475037,469.435699 
	C847.317566,474.965759 840.242249,480.608490 832.935364,485.933685 
	C831.416626,487.040588 829.040039,486.970428 827.058777,487.442657 
	C826.890198,485.372650 826.363220,483.253967 826.636292,481.243958 
	C827.055420,478.159058 828.024719,475.148926 829.110229,471.439667 
	C831.682312,464.588165 834.254456,457.736633 837.100281,450.244049 
M1130.051025,441.410583 
	C1127.771240,446.658081 1125.491455,451.905609 1122.980469,457.823425 
	C1120.328979,464.133698 1116.207520,468.924377 1109.811157,471.363342 
	C1109.275269,471.094666 1108.739502,470.825989 1108.203613,470.557312 
	C1110.398926,464.214478 1112.594238,457.871643 1114.789429,451.528809 
	C1114.368286,451.369049 1113.947144,451.209320 1113.526001,451.049561 
	C1109.020996,456.772827 1104.515991,462.496094 1100.010986,468.219360 
	C1099.050659,466.820496 1098.831909,465.966614 1099.088623,465.294128 
	C1100.155151,462.500092 1101.529419,459.813812 1102.444214,456.976196 
	C1102.828369,455.784271 1102.352173,454.314941 1102.267212,452.971710 
	C1101.187866,453.711517 1099.720215,454.219147 1099.110107,455.239563 
	C1097.839966,457.363800 1097.243530,459.890350 1095.977051,462.017456 
	C1092.994995,467.026123 1088.469238,469.885193 1081.651855,471.645813 
	C1083.349121,466.679138 1084.827759,462.871979 1085.902222,458.953918 
	C1086.335815,457.372528 1086.482666,455.205048 1085.730347,453.896271 
	C1082.925171,449.016724 1080.614868,448.696259 1076.217896,452.482727 
	C1071.061035,456.923645 1066.340576,461.900604 1060.983521,466.070068 
	C1057.166992,469.040405 1052.834351,471.745636 1046.366577,470.691071 
	C1048.535156,469.372223 1050.007446,468.692017 1051.219604,467.695526 
	C1053.894897,465.496582 1056.767944,463.410797 1058.952759,460.775238 
	C1061.614258,457.564575 1060.449829,454.570587 1057.078247,452.389954 
	C1052.043091,449.133392 1049.424438,452.997345 1047.596924,456.345276 
	C1045.009033,461.085968 1041.647095,462.988831 1036.988281,461.881470 
	C1035.864868,459.522797 1035.355835,456.682831 1033.663574,455.384369 
	C1031.863525,454.002930 1028.942749,454.081573 1026.102417,453.428741 
	C1027.238770,451.861115 1028.319580,450.447662 1029.318726,448.978729 
	C1033.899414,442.244843 1038.661621,435.619049 1042.876099,428.662170 
	C1043.895386,426.979584 1043.078857,424.184875 1043.106445,421.901581 
	C1041.072021,422.595245 1038.555542,422.748291 1037.077881,424.066254 
	C1022.394165,437.163757 1014.760010,454.004486 1012.009521,473.187347 
	C1011.682495,475.467865 1013.183350,478.010498 1014.031738,481.153473 
	C1011.072571,484.807831 1011.227173,485.749359 1016.449768,488.398132 
	C1023.820129,486.661377 1027.899658,481.368500 1031.327271,474.393555 
	C1032.226807,472.618530 1033.356079,470.920197 1033.979248,469.052979 
	C1035.389648,464.826416 1038.523926,463.864716 1042.418701,463.801575 
	C1043.415405,474.155396 1048.226196,477.050934 1056.795532,472.677155 
	C1059.105591,471.498077 1061.312988,470.117676 1063.149414,469.068542 
	C1064.355713,470.970184 1065.327271,472.501984 1066.298950,474.033783 
	C1067.748413,473.045166 1069.438599,472.277802 1070.595093,471.019806 
	C1072.726807,468.700836 1074.452637,466.013031 1076.528442,463.636902 
	C1077.787354,462.195984 1079.385376,461.051331 1081.856567,458.867096 
	C1081.259399,464.781281 1076.579590,470.221588 1082.270142,472.878967 
	C1085.175049,474.235504 1089.979370,471.524902 1094.474609,470.531158 
	C1100.263672,477.907715 1101.685059,467.464874 1104.454712,466.488586 
	C1106.427979,469.220032 1107.755005,472.912659 1109.736328,473.305664 
	C1111.959473,473.746643 1114.786499,471.228271 1117.319580,469.936646 
	C1117.729858,469.727478 1117.978882,469.202332 1118.537964,469.775757 
	C1117.420776,476.219330 1116.303711,482.662933 1115.081909,489.947968 
	C1114.815430,493.852051 1114.750366,497.768341 1118.980469,499.754425 
	C1119.821899,500.149445 1121.230957,499.335297 1122.378296,499.078705 
	C1122.133789,498.370758 1121.909302,497.054932 1121.641602,497.046051 
	C1117.576294,496.911224 1118.845215,493.721619 1119.101440,491.928955 
	C1120.010132,485.571472 1121.378906,479.279694 1122.973755,472.447723 
	C1125.642700,465.293518 1128.311768,458.139343 1131.278442,450.360840 
	C1132.477051,447.826416 1133.773193,445.332733 1134.853394,442.748840 
	C1136.910522,437.827942 1139.338623,433.496674 1146.734009,434.523254 
	C1151.841064,435.025604 1156.947998,435.527954 1161.622070,436.114929 
	C1161.410645,437.674530 1161.606689,439.448242 1160.918701,440.757355 
	C1157.606201,447.060699 1154.612305,453.648041 1150.427490,459.342438 
	C1146.485352,464.706696 1141.199097,469.083191 1135.904907,473.170624 
	C1135.701050,472.932922 1135.497192,472.695190 1135.381104,471.711823 
	C1137.539917,466.685242 1139.812012,461.702271 1141.774780,456.600220 
	C1142.241455,455.387665 1141.672119,453.776581 1141.579224,452.348816 
	C1140.365845,453.145844 1138.586670,453.667633 1138.040894,454.789398 
	C1136.084717,458.810455 1134.246582,462.941376 1132.919312,467.203705 
	C1130.885132,473.737000 1131.390259,474.902863 1137.308228,477.864136 
	C1138.998413,478.709930 1141.286133,478.362000 1143.405151,478.571869 
	C1142.226440,484.303986 1140.886108,489.785492 1140.030273,495.341644 
	C1139.439453,499.176910 1141.028442,502.963623 1144.954346,503.361542 
	C1147.484619,503.617981 1151.305298,501.833435 1152.812378,499.723846 
	C1161.271118,487.883240 1158.600586,480.200562 1148.802856,473.868256 
	C1156.654419,468.859344 1164.456665,465.179474 1172.821411,464.963654 
	C1173.984741,467.909241 1174.265625,471.286163 1175.791870,471.999817 
	C1180.995361,474.432953 1181.121216,467.339966 1183.580078,466.614685 
	C1185.782837,469.328613 1187.317017,472.997162 1189.504517,473.440369 
	C1191.953369,473.936584 1194.994263,471.511078 1197.849609,470.327057 
	C1197.849609,472.855591 1197.662598,475.355194 1197.884399,477.817963 
	C1198.579956,485.541229 1205.319092,489.039948 1211.349731,484.258270 
	C1216.230103,480.388611 1220.167236,475.313202 1224.396973,470.658356 
	C1224.964111,470.034271 1224.792603,468.739136 1224.963135,467.754791 
	C1224.527954,467.451111 1224.092773,467.147430 1223.657593,466.843750 
	C1221.635254,469.166687 1219.796875,471.688629 1217.547729,473.765961 
	C1214.151733,476.902496 1210.730347,480.151123 1206.830811,482.560852 
	C1203.368652,484.700226 1201.081909,483.088043 1200.938843,478.978027 
	C1200.787720,474.636200 1200.877563,470.440887 1206.016968,468.309509 
	C1207.843262,467.552124 1209.350464,465.508789 1210.503784,463.728790 
	C1218.000610,452.158844 1225.467651,440.565765 1232.676147,428.815735 
	C1234.181763,426.361664 1236.974976,422.676086 1233.259399,420.573822 
	C1231.727173,419.706970 1227.483154,421.974243 1225.481201,423.877167 
	C1215.583740,433.284424 1208.501587,444.702759 1202.970093,457.134125 
	C1200.062378,463.668945 1195.635742,468.706879 1187.266968,472.145813 
	C1188.588135,467.508270 1189.376709,464.205444 1190.482178,461.012329 
	C1191.571533,457.865448 1192.981934,454.829712 1194.251587,451.745209 
	C1193.764404,451.515045 1193.277222,451.284912 1192.790039,451.054749 
	C1188.397949,456.614136 1184.005737,462.173492 1179.613647,467.732880 
	C1179.010010,467.373566 1178.406372,467.014252 1177.802734,466.654968 
	C1179.089233,463.536163 1180.549927,460.473236 1181.576660,457.271118 
	C1181.990479,455.981049 1181.453125,454.385986 1181.348633,452.929749 
	C1180.227295,453.884552 1178.491943,454.634674 1178.093506,455.830414 
	C1176.572388,460.394135 1173.944702,462.824768 1168.881714,462.926483 
	C1166.133545,462.981720 1163.390015,464.152954 1160.679443,464.940887 
	C1158.071533,465.698975 1155.508545,466.611847 1152.925903,467.456726 
	C1152.540527,467.063995 1152.155151,466.671234 1151.769653,466.278503 
	C1158.301514,454.112488 1164.833252,441.946503 1171.364990,429.780487 
	C1171.058594,429.406738 1170.752197,429.033020 1170.445801,428.659271 
	C1168.352173,429.934418 1166.258667,431.209534 1163.266479,432.122925 
	C1157.432495,432.344666 1151.598511,432.566437 1144.848389,432.767914 
	C1143.676880,432.626831 1142.505249,432.485779 1141.258301,432.335602 
	C1141.485474,431.487762 1141.583008,431.176727 1141.651489,430.859375 
	C1142.215332,428.247101 1147.613647,425.709076 1143.017578,423.204742 
	C1138.733154,420.870300 1138.401978,426.339691 1137.203979,428.563873 
	C1135.126221,432.421844 1132.582642,434.018341 1128.223389,434.087952 
	C1120.760620,434.207123 1113.307007,434.903015 1105.849976,435.365082 
	C1101.745239,435.619446 1097.641479,435.890900 1092.943970,436.192749 
	C1093.751709,437.587067 1094.009033,438.359467 1094.218994,438.346771 
	C1106.723877,437.591492 1119.224976,436.771576 1132.132568,435.931335 
	C1131.818115,437.270813 1131.568115,438.335571 1130.996094,439.886444 
	C1130.831909,440.240326 1130.667725,440.594238 1130.051025,441.410583 
M947.904846,473.170685 
	C947.700928,472.932953 947.497070,472.695221 947.380981,471.711823 
	C949.605164,466.538391 951.926514,461.402924 953.971863,456.159729 
	C954.384216,455.102631 953.749817,453.637146 953.598022,452.359924 
	C952.461853,452.999237 950.729553,453.365570 950.290588,454.324158 
	C948.153992,458.990051 945.984070,463.709930 944.628845,468.631805 
	C944.051575,470.728394 944.855774,474.971802 946.052551,475.402191 
	C948.178223,476.166565 951.743042,475.571838 953.523376,474.107788 
	C957.319885,470.985748 960.359680,466.943512 963.673828,463.317383 
	C965.723877,465.635834 967.887695,468.082855 969.721313,470.156433 
	C967.795349,472.679199 965.540100,474.941437 964.194519,477.654846 
	C963.382996,479.291260 963.194946,482.286621 964.175903,483.465881 
	C965.149292,484.636108 968.123047,484.978546 969.901489,484.500580 
	C978.339661,482.232819 980.855591,476.496552 977.035645,468.446655 
	C982.257507,464.577545 987.537720,460.665283 992.817871,456.753021 
	C991.396667,456.221527 990.235657,456.262329 989.377930,456.793213 
	C985.004944,459.499481 980.455994,462.014740 976.461853,465.212891 
	C972.675659,468.244629 969.948608,466.034210 967.977234,463.673004 
	C967.134155,462.663239 968.078552,458.769012 969.434021,457.578583 
	C973.382690,454.110931 977.993530,451.406982 982.246765,448.270691 
	C983.592651,447.278259 985.853943,445.416840 985.599243,444.725311 
	C984.428162,441.545166 981.685669,442.528900 979.900391,443.979187 
	C974.420105,448.431030 969.012085,453.005676 963.917053,457.888519 
	C958.573792,463.009216 953.625183,468.541718 947.904846,473.170685 
M833.696655,325.338287 
	C836.581116,325.720520 839.465576,326.102753 842.549744,326.511475 
	C842.549744,350.966034 842.549744,375.168121 842.549744,399.607452 
	C839.355164,399.951385 836.463074,400.262787 833.570984,400.574158 
	C833.612000,401.053192 833.653015,401.532196 833.694031,402.011200 
	C841.440186,402.011200 849.188721,402.130493 856.931763,401.974304 
	C863.398499,401.843842 869.960754,401.999817 876.298096,400.938599 
	C885.933716,399.325073 891.704407,392.902374 892.832703,384.048462 
	C893.985535,375.001953 889.394897,366.508209 881.019165,362.288025 
	C879.269348,361.406372 877.441528,360.679413 875.053162,359.615448 
	C877.565796,358.483032 879.529480,357.712952 881.387512,356.740723 
	C889.457458,352.518097 892.713440,343.413300 888.915222,335.503052 
	C885.921753,329.268677 880.468079,325.475403 874.004028,325.099640 
	C860.621826,324.321716 847.174744,324.660339 833.696655,325.338287 
M924.050476,343.498810 
	C924.050476,337.883759 924.050476,332.268707 924.050476,325.986115 
	C929.298218,325.986115 933.912292,325.979553 938.526367,325.987488 
	C948.226807,326.004150 952.841492,329.683838 954.977295,339.130493 
	C955.420654,341.091125 955.776245,343.071594 956.172302,345.042908 
	C956.682129,344.986450 957.191956,344.929993 957.701782,344.873505 
	C957.701782,339.796295 957.547424,334.712921 957.748657,329.643677 
	C957.922729,325.256744 956.028748,323.868774 951.769714,323.922546 
	C936.942383,324.109619 922.111328,323.995483 907.281860,324.034790 
	C905.950073,324.038300 904.619141,324.322296 903.287781,324.476044 
	C904.220459,325.626831 905.110901,325.972198 905.992065,325.949768 
	C913.147644,325.767517 912.816284,325.726532 912.821411,333.302551 
	C912.835022,353.464203 912.709656,373.626984 912.913513,393.786591 
	C912.959595,398.345306 912.016296,400.836304 906.912964,400.110474 
	C905.845459,399.958649 904.679016,400.502136 903.096741,400.817047 
	C903.795166,401.468903 903.899414,401.651733 904.004883,401.652435 
	C921.649353,401.770020 939.294189,401.929871 956.937988,401.861206 
	C958.179871,401.856384 960.442688,400.208618 960.487976,399.242950 
	C960.801819,392.557922 960.653503,385.851196 960.653503,379.151428 
	C960.187439,379.090118 959.721375,379.028778 959.255310,378.967438 
	C958.404602,382.041992 957.645386,385.145538 956.682434,388.184540 
	C955.080017,393.241333 952.963989,398.662659 947.153198,399.304840 
	C939.682983,400.130463 932.052551,399.505707 924.459839,399.505707 
	C924.459839,386.906311 924.459839,374.677246 924.459839,362.518555 
	C936.483643,360.612549 937.272949,361.076355 943.068359,373.809998 
	C943.068359,364.979797 943.068359,357.053375 943.068359,349.126923 
	C937.869263,360.639679 936.062561,361.677429 924.050476,359.199829 
	C924.050476,354.402283 924.050476,349.448914 924.050476,343.498810 
M1148.489014,323.992462 
	C1135.370483,323.992462 1122.251953,323.992462 1109.133423,323.992462 
	C1109.119751,324.532501 1109.106201,325.072510 1109.092529,325.612549 
	C1111.932861,325.870575 1114.773315,326.128571 1117.759277,326.399811 
	C1117.759277,351.012512 1117.759277,375.238525 1117.759277,399.672821 
	C1114.627319,399.960602 1111.867920,400.214172 1108.248535,400.546753 
	C1109.473877,401.493744 1109.715088,401.843414 1109.957520,401.844299 
	C1127.451416,401.908081 1144.946045,402.009979 1162.438110,401.843506 
	C1163.688599,401.831635 1165.934448,399.890503 1165.993408,398.756775 
	C1166.335449,392.180206 1166.160645,385.576752 1166.160645,378.982391 
	C1165.712036,378.918060 1165.263428,378.853699 1164.814819,378.789368 
	C1163.736084,382.513458 1162.823364,386.295746 1161.543701,389.949463 
	C1158.957031,397.333923 1155.168091,399.949432 1147.340576,400.027222 
	C1142.841675,400.071930 1138.337646,399.912170 1133.844238,400.075562 
	C1130.854370,400.184265 1129.657349,399.076508 1129.687256,396.047089 
	C1129.785645,386.049530 1129.686035,376.050110 1129.769165,366.052246 
	C1129.779419,364.821014 1130.041626,363.100586 1130.858276,362.451569 
	C1134.575439,359.497711 1144.546753,362.827850 1146.123047,367.392548 
	C1146.764771,369.250946 1147.291748,371.148956 1147.870850,373.028961 
	C1148.071655,372.930084 1148.272583,372.831238 1148.473389,372.732391 
	C1148.473389,364.880463 1148.473389,357.028534 1148.473389,349.176605 
	C1143.935669,360.029236 1143.739380,359.995331 1134.448975,360.070282 
	C1130.614380,360.101196 1129.563721,358.726837 1129.650024,355.128632 
	C1129.841797,347.134369 1129.839844,339.129211 1129.650513,331.134827 
	C1129.562012,327.396606 1130.571777,325.511719 1134.687622,325.939880 
	C1137.489990,326.231415 1140.347656,325.991028 1143.180542,325.993591 
	C1154.136353,326.003510 1158.843872,329.942017 1160.863281,340.763458 
	C1161.128052,342.182739 1161.461182,343.589325 1161.762817,345.001770 
	C1162.199463,344.921600 1162.636230,344.841431 1163.072998,344.761230 
	C1163.072998,342.292877 1163.072510,339.824493 1163.072998,337.356110 
	C1163.076050,323.967346 1163.076172,323.967346 1148.489014,323.992462 
M554.933228,324.098724 
	C537.889038,324.098724 520.844849,324.098724 503.800659,324.098724 
	C503.800690,324.616211 503.800720,325.133667 503.800751,325.651154 
	C506.704102,325.877014 509.607452,326.102875 512.667847,326.340973 
	C512.667847,350.971741 512.667847,375.204895 512.667847,399.590729 
	C509.543304,399.973267 506.723694,400.318451 503.904083,400.663666 
	C503.956421,401.089996 504.008789,401.516296 504.061127,401.942627 
	C521.857910,401.942627 539.654968,401.977539 557.450928,401.856232 
	C558.523621,401.848969 560.491943,400.626984 560.515747,399.918884 
	C560.748352,392.993256 560.655945,386.056671 560.655945,379.123230 
	C558.356506,382.976257 557.346741,386.964874 555.968750,390.821930 
	C553.769226,396.978333 549.416565,400.226532 542.686157,400.066803 
	C538.190491,399.960144 533.680481,399.868347 529.195068,400.109253 
	C525.502502,400.307617 524.171509,398.926147 524.239502,395.238068 
	C524.408386,386.078186 524.492676,376.906616 524.203430,367.752625 
	C524.058228,363.157166 525.594482,361.679962 530.196716,361.843842 
	C538.622559,362.143829 539.463806,362.512421 541.773315,370.441650 
	C542.019714,371.287567 542.420166,372.088623 542.749146,372.910492 
	C542.980530,372.859802 543.211975,372.809143 543.443420,372.758453 
	C543.443420,364.874725 543.443420,356.991028 543.443420,349.107300 
	C543.033936,348.768097 542.624512,348.428864 542.215027,348.089661 
	C541.860474,357.630280 537.150024,361.180969 528.537659,360.090637 
	C525.727905,359.734894 524.248352,359.157959 524.280640,356.071106 
	C524.371155,347.408936 524.363342,338.744659 524.280029,330.082336 
	C524.251770,327.145416 525.345825,325.819214 528.394165,325.954865 
	C531.885681,326.110199 535.389709,325.973877 538.888306,325.980896 
	C548.376648,325.999878 552.779785,329.463196 555.121582,338.751099 
	C555.642029,340.815308 556.127991,342.888184 556.629822,344.957031 
	C557.801514,338.819946 557.885437,332.889130 557.712524,326.965820 
	C557.685974,326.058472 556.473999,325.185669 554.933228,324.098724 
M659.040039,397.117920 
	C659.040039,391.121399 659.040039,385.124878 659.040039,379.128387 
	C658.534912,379.084473 658.029724,379.040588 657.524597,378.996704 
	C656.422485,382.738159 655.494202,386.541840 654.181458,390.207855 
	C651.610352,397.388153 647.890015,399.955475 640.337708,400.039429 
	C635.673706,400.091309 631.007019,399.971924 626.344543,400.069977 
	C623.703247,400.125488 622.283997,399.253937 622.299927,396.389954 
	C622.357178,386.061737 622.278076,375.732361 622.408875,365.405426 
	C622.422607,364.320587 623.215759,362.678986 624.101562,362.262878 
	C630.296753,359.352844 637.578064,362.817230 639.454285,369.333588 
	C639.812195,370.576630 640.312134,371.778809 640.746521,372.999817 
	C641.003479,372.887878 641.260498,372.775940 641.517456,372.664001 
	C641.517456,364.825195 641.517456,356.986389 641.517456,347.803864 
	C640.550049,349.474609 640.164185,349.932831 639.997192,350.460327 
	C637.056885,359.748077 636.220520,360.231323 626.704834,360.059052 
	C623.499451,360.001007 622.174988,358.973877 622.266174,355.726410 
	C622.406372,350.732758 622.201416,345.729889 622.311035,340.734650 
	C622.412659,336.103912 620.993286,329.538574 623.418457,327.360931 
	C626.196350,324.866577 632.471375,326.079071 637.231201,326.020416 
	C646.197021,325.909882 650.634460,329.407990 652.974304,338.110260 
	C653.580994,340.366577 654.043640,342.661621 654.572449,344.938873 
	C655.018250,344.888794 655.463989,344.838715 655.909790,344.788635 
	C655.909790,339.564728 655.776367,334.336334 655.953064,329.118408 
	C656.088257,325.123260 654.230164,323.926514 650.496216,323.955505 
	C635.336975,324.073151 620.176331,324.004791 605.016357,324.052216 
	C603.907471,324.055664 602.799744,324.434479 601.691406,324.638794 
	C601.728149,324.968750 601.764832,325.298706 601.801575,325.628693 
	C604.689575,325.863312 607.577576,326.097931 610.688538,326.350677 
	C610.688538,350.923645 610.688538,375.155792 610.688538,399.587830 
	C607.555847,399.956573 604.703674,400.292297 601.851501,400.628021 
	C601.902344,401.067993 601.953186,401.507935 602.004028,401.947906 
	C619.797729,401.947906 637.592529,402.024994 655.382874,401.779602 
	C656.607239,401.762726 657.798401,399.338104 659.040039,397.117920 
M696.241211,353.492950 
	C693.400146,352.548981 690.549744,351.631897 687.719971,350.655273 
	C682.502869,348.854584 679.265625,345.400543 679.062256,339.695068 
	C678.849304,333.723267 681.740356,329.518585 686.999268,326.953583 
	C698.311096,321.436401 710.767212,326.748993 714.842896,338.781403 
	C715.482605,340.670044 715.985718,342.604950 716.551941,344.518463 
	C716.868958,344.425934 717.186035,344.333435 717.503052,344.240906 
	C717.503052,337.196594 717.503052,330.152313 717.503052,322.690826 
	C712.497498,326.706970 712.575439,326.458282 706.469360,324.544067 
	C703.042175,323.469604 699.308960,322.942993 695.709534,322.923523 
	C683.313293,322.856384 673.797913,330.564545 672.128052,341.635498 
	C670.472229,352.613464 676.221497,360.704407 688.606689,364.894653 
	C694.906128,367.025970 701.296387,368.945618 707.442688,371.457336 
	C714.154419,374.200104 716.755981,379.615601 715.508057,386.772125 
	C714.277954,393.825836 710.123413,398.459412 703.490845,400.831268 
	C692.013855,404.935486 679.386780,398.490936 674.041870,385.909576 
	C673.249207,384.043732 672.504883,382.157349 671.738159,380.280457 
	C671.370178,380.380157 671.002197,380.479889 670.634216,380.579620 
	C670.634216,387.990570 670.634216,395.401550 670.634216,404.404175 
	C673.468567,401.158173 675.317017,399.041260 677.044128,397.063293 
	C680.205566,398.837708 682.845520,400.636841 685.724854,401.882446 
	C700.969299,408.477020 717.212402,400.434692 721.370789,384.350159 
	C724.967651,370.437683 718.986572,359.930908 705.192566,355.969879 
	C702.474670,355.189392 699.733215,354.490936 696.241211,353.492950 
M789.759644,334.996399 
	C791.053833,338.674011 792.347961,342.351624 793.642151,346.029205 
	C794.193298,345.886841 794.744507,345.744446 795.295654,345.602051 
	C794.753784,339.225281 794.360840,332.828522 793.512329,326.492828 
	C793.382446,325.522980 791.155029,324.132721 789.887695,324.122070 
	C771.726990,323.969482 753.564331,323.990662 735.402893,324.095825 
	C734.300110,324.102173 732.335999,325.045380 732.239136,325.753235 
	C731.336487,332.352264 730.755066,338.995239 730.080627,345.625519 
	C733.906494,340.448303 735.927429,334.697937 739.339111,329.946014 
	C743.597046,324.015472 750.346863,326.113647 756.596802,326.267517 
	C756.596802,350.976990 756.596802,375.329834 756.596802,399.676208 
	C753.368958,399.989594 750.594849,400.258911 747.820740,400.528259 
	C747.867249,400.860443 747.913757,401.192657 747.960266,401.524841 
	C757.855469,401.524841 767.750732,401.524841 777.645935,401.524841 
	C777.662537,401.123108 777.679077,400.721375 777.695679,400.319641 
	C776.005432,400.229645 774.304810,399.978058 772.627136,400.085297 
	C769.691406,400.272949 768.364807,399.164246 768.372070,396.109467 
	C768.424377,374.115112 768.343384,352.120087 768.526550,330.127167 
	C768.537964,328.750732 770.241394,326.401093 771.461731,326.179596 
	C780.458313,324.546600 784.735474,326.648254 789.759644,334.996399 
M330.481354,365.850677 
	C325.779846,351.607910 321.078339,337.365173 316.376862,323.122406 
	C315.916260,323.171753 315.455688,323.221130 314.995117,323.270508 
	C314.325684,325.099731 313.604126,326.911743 312.994690,328.760773 
	C305.910187,350.256531 298.682159,371.707367 291.889404,393.295105 
	C290.299500,398.347992 288.186218,401.112946 282.619934,400.116882 
	C281.864990,399.981781 280.986420,400.537201 280.165100,400.772888 
	C280.217682,400.980408 280.270264,401.187897 280.322845,401.395386 
	C288.425171,401.395386 296.527496,401.395386 304.629822,401.395386 
	C304.632080,400.965546 304.634308,400.535675 304.636536,400.105835 
	C300.592712,400.105835 296.548889,400.105835 291.703674,400.105835 
	C294.078491,392.826080 296.044098,386.329102 298.420288,379.985931 
	C298.811401,378.941925 300.982819,378.042847 302.368988,377.985535 
	C307.855865,377.758759 313.360992,377.790894 318.851471,377.969116 
	C320.148834,378.011200 322.219696,378.686737 322.567474,379.594635 
	C325.044281,386.060425 327.166290,392.662140 329.555603,399.673584 
	C325.207672,399.960052 321.753418,400.187653 318.299164,400.415222 
	C318.335052,400.799316 318.370941,401.183411 318.406830,401.567505 
	C329.274200,401.567505 340.141602,401.567505 351.008972,401.567505 
	C349.920258,400.424683 348.679565,399.908691 347.570587,400.111816 
	C342.641205,401.014679 340.977325,398.367798 339.726440,394.122925 
	C336.999298,384.868256 333.781342,375.758209 330.481354,365.850677 
M1047.838745,326.990631 
	C1047.973511,327.639679 1048.225220,328.288513 1048.226318,328.937775 
	C1048.261963,351.256165 1048.230347,373.574768 1048.336060,395.892761 
	C1048.351929,399.248077 1046.958618,400.287506 1043.835083,400.081787 
	C1042.275757,399.979065 1040.682373,400.392731 1039.104370,400.572815 
	C1039.155029,401.058380 1039.205811,401.543976 1039.256470,402.029541 
	C1041.051147,402.029541 1042.845947,402.029541 1044.640625,402.029541 
	C1059.464355,402.029541 1074.288452,402.101624 1089.111572,402.007904 
	C1102.160889,401.925415 1101.786011,404.171021 1101.733521,389.399048 
	C1101.721436,385.980988 1101.731812,382.562897 1101.731812,379.144806 
	C1101.128174,379.120697 1100.524414,379.096558 1099.920776,379.072449 
	C1098.893311,382.698608 1098.042969,386.386658 1096.801758,389.938141 
	C1094.217041,397.333527 1090.447998,399.945862 1082.614624,400.019043 
	C1076.785522,400.073486 1070.942993,399.798309 1065.130371,400.113800 
	C1060.943115,400.341064 1059.737915,398.854767 1059.773682,394.738861 
	C1059.950928,374.253754 1059.849731,353.766205 1059.852905,333.279541 
	C1059.854004,326.269714 1059.863403,326.291351 1067.106567,325.964752 
	C1068.086304,325.920593 1069.050537,325.530609 1070.021973,325.300720 
	C1069.975586,325.029480 1069.929199,324.758240 1069.882812,324.487000 
	C1059.677124,324.487000 1049.471558,324.487000 1039.265991,324.487000 
	C1039.239380,324.848175 1039.212769,325.209381 1039.186157,325.570557 
	C1041.858521,325.828003 1044.531006,326.085480 1047.838745,326.990631 
M411.360168,338.905548 
	C410.028839,334.828979 408.697510,330.752441 407.261566,326.355499 
	C410.798889,326.066711 413.762329,325.824799 416.725739,325.582886 
	C416.697388,325.238403 416.669037,324.893951 416.640686,324.549469 
	C406.675507,324.549469 396.710327,324.549469 385.832306,324.549469 
	C386.889130,325.392120 387.098297,325.670959 387.365265,325.747070 
	C387.838989,325.882202 388.380920,326.039764 388.837006,325.936005 
	C395.142273,324.501068 396.924744,328.292053 398.595337,333.422455 
	C405.605225,354.950073 412.966858,376.363342 420.253479,397.800171 
	C420.885284,399.658875 421.910767,401.383728 422.753326,403.170776 
	C424.688751,401.188416 425.421661,399.393494 426.014374,397.553436 
	C432.803192,376.478271 439.688263,355.432770 446.260956,334.290253 
	C447.897339,329.026459 449.470764,324.553558 456.271179,325.634766 
	C456.355469,325.648193 456.524475,325.128601 456.760010,324.635986 
	C450.190521,324.635986 443.744720,324.635986 437.298889,324.635986 
	C437.289917,324.965881 437.280945,325.295746 437.271973,325.625641 
	C440.106689,325.880310 442.941376,326.134949 446.349182,326.441101 
	C440.098846,345.877289 434.043823,364.706207 427.988770,383.535156 
	C427.517487,383.506348 427.046204,383.477509 426.574921,383.448700 
	C421.602295,368.843719 416.629639,354.238739 411.360168,338.905548 
M252.499664,402.004639 
	C257.993988,402.001801 263.495422,402.153046 268.978180,401.899780 
	C270.568604,401.826294 273.420959,400.661835 273.460968,399.882690 
	C273.815460,392.985046 273.666901,386.061554 273.666901,379.145691 
	C271.439972,382.693268 270.548981,386.368622 269.306458,389.921021 
	C266.700958,397.370087 262.983704,399.978088 255.180878,400.048462 
	C249.354034,400.101044 243.510849,399.803284 237.704117,400.150024 
	C233.330307,400.411163 232.004059,399.007721 232.050934,394.568054 
	C232.272339,373.592041 232.141479,352.612457 232.163483,331.634125 
	C232.165329,329.872772 232.369339,328.111633 232.482025,326.308624 
	C236.157990,326.035370 239.267166,325.804230 242.376328,325.573090 
	C242.335693,325.234741 242.295059,324.896423 242.254425,324.558075 
	C232.080887,324.558075 221.907349,324.558075 211.733826,324.558075 
	C211.710648,324.914093 211.687469,325.270111 211.664291,325.626129 
	C214.646088,325.868103 217.627869,326.110046 220.616028,326.352539 
	C220.616028,351.079224 220.616028,375.300568 220.616028,399.660400 
	C217.373856,399.989777 214.477402,400.284058 211.580948,400.578308 
	C211.625641,401.053741 211.670334,401.529205 211.715027,402.004639 
	C224.976608,402.004639 238.238205,402.004639 252.499664,402.004639 
M990.147949,392.377350 
	C990.147949,370.451080 990.147949,348.524811 990.147949,326.429504 
	C994.021851,326.064362 997.206116,325.764191 1000.390442,325.464020 
	C1000.341431,325.196259 1000.292419,324.928528 1000.243347,324.660767 
	C990.066711,324.660767 979.890137,324.660767 969.713501,324.660767 
	C969.710144,324.989136 969.706726,325.317474 969.703369,325.645844 
	C972.600708,325.864105 975.497986,326.082336 978.544434,326.311859 
	C978.544434,350.983521 978.544434,375.330780 978.544434,399.761627 
	C975.288391,400.010345 972.458679,400.226501 969.153381,400.479004 
	C969.911255,401.357147 970.094360,401.756317 970.279358,401.757141 
	C989.586731,401.843536 1008.894470,401.950317 1028.200928,401.839569 
	C1029.423828,401.832550 1031.646729,400.166382 1031.692139,399.192352 
	C1032.002441,392.531006 1031.854736,385.848297 1031.854736,379.172516 
	C1031.419922,379.119171 1030.985107,379.065826 1030.550293,379.012482 
	C1029.513062,382.567078 1028.612793,386.168762 1027.410400,389.666626 
	C1024.766357,397.358673 1021.039856,399.986023 1012.954102,400.051636 
	C1007.626038,400.094910 1002.297363,400.069977 996.968994,400.064545 
	C990.203247,400.057648 990.203247,400.052856 990.147949,392.377350 
M489.040192,324.001251 
	C480.706757,324.001251 472.373352,324.001251 464.039917,324.001251 
	C464.014435,324.538330 463.988922,325.075409 463.963440,325.612488 
	C466.892822,325.879028 469.822235,326.145569 472.657196,326.403503 
	C472.657196,351.167694 472.657196,375.366577 472.657196,399.684357 
	C469.473450,399.971680 466.701965,400.221832 463.930481,400.471954 
	C463.974060,400.835388 464.017639,401.198853 464.061188,401.562317 
	C473.939514,401.562317 483.817871,401.562317 493.696198,401.562317 
	C492.949127,400.476074 492.108398,400.131256 491.247894,400.071686 
	C484.604767,399.611755 484.581482,399.628937 484.578278,393.066437 
	C484.568237,372.602325 484.658020,352.137604 484.509186,331.674561 
	C484.479187,327.547363 485.422577,325.294006 490.041199,325.945251 
	C491.260284,326.117126 492.569885,325.646881 493.837891,325.471497 
	C493.793518,325.101440 493.749115,324.731354 493.704712,324.361267 
	C492.436676,324.241669 491.168610,324.122040 489.040192,324.001251 
M1246.636719,484.178406 
	C1247.560181,486.039215 1248.391479,487.962067 1249.540405,489.671356 
	C1249.664673,489.856110 1252.389771,489.002411 1252.579590,488.280975 
	C1252.942627,486.900269 1252.858887,484.437286 1252.035278,483.932220 
	C1250.751953,483.145172 1248.696777,483.616333 1246.636719,484.178406 
M1230.512451,482.437836 
	C1227.010864,483.526489 1227.219360,486.030426 1229.021606,488.088043 
	C1229.833740,489.015137 1232.189697,488.589935 1233.845215,488.778351 
	C1233.440552,486.832733 1233.083496,484.874573 1232.577271,482.955719 
	C1232.506104,482.685852 1231.706909,482.607971 1230.512451,482.437836 
M1243.692749,487.993042 
	C1242.777100,486.188049 1241.994995,484.285095 1240.813354,482.675415 
	C1240.618408,482.409790 1237.849487,483.246307 1237.706665,483.891510 
	C1237.398315,485.283783 1237.517822,487.609863 1238.391479,488.217194 
	C1239.544067,489.018433 1241.587891,488.537323 1243.692749,487.993042 
M957.350220,440.815338 
	C956.533569,442.044617 955.568970,443.207397 954.971924,444.535431 
	C954.727661,445.078735 955.104187,446.114624 955.533264,446.665527 
	C955.782471,446.985535 957.092346,447.036774 957.250671,446.784973 
	C959.003540,443.997253 960.624268,441.126465 962.280701,438.278137 
	C961.410095,437.600250 960.539551,436.922363 959.668945,436.244476 
	C959.037476,437.597107 958.405945,438.949738 957.350220,440.815338 
M1148.112915,437.897217 
	C1146.447021,439.920441 1144.706299,441.889252 1143.168701,444.005737 
	C1142.791626,444.524841 1142.873047,445.607452 1143.136719,446.275970 
	C1143.297607,446.684082 1144.239502,447.058014 1144.777222,446.994568 
	C1146.690918,446.768799 1149.650146,439.658630 1148.112915,437.897217 
M865.746216,446.336456 
	C869.254395,446.611847 872.575012,441.939178 871.608459,435.975006 
	C869.095886,439.964233 867.258118,442.882172 865.746216,446.336456 
z"/>
<path fill="#A3A4A4" opacity="1.000000" stroke="none" 
	d="
M833.725464,324.939056 
	C847.174744,324.660339 860.621826,324.321716 874.004028,325.099640 
	C880.468079,325.475403 885.921753,329.268677 888.915222,335.503052 
	C892.713440,343.413300 889.457458,352.518097 881.387512,356.740723 
	C879.529480,357.712952 877.565796,358.483032 875.053162,359.615448 
	C877.441528,360.679413 879.269348,361.406372 881.019165,362.288025 
	C889.394897,366.508209 893.985535,375.001953 892.832703,384.048462 
	C891.704407,392.902374 885.933716,399.325073 876.298096,400.938599 
	C869.960754,401.999817 863.398499,401.843842 856.931763,401.974304 
	C849.188721,402.130493 841.440186,402.011200 833.694031,402.011200 
	C833.653015,401.532196 833.612000,401.053192 833.570984,400.574158 
	C836.463074,400.262787 839.355164,399.951385 842.549744,399.607452 
	C842.549744,375.168121 842.549744,350.966034 842.549744,326.511475 
	C839.465576,326.102753 836.581116,325.720520 833.725464,324.939056 
M854.097656,397.146759 
	C854.957581,398.100281 855.789856,399.844299 856.682068,399.875519 
	C861.494080,400.043793 866.361267,400.134125 871.131287,399.579193 
	C875.862244,399.028778 879.397888,395.917175 879.968079,391.257477 
	C880.747070,384.892395 881.250916,378.298004 880.443787,371.984589 
	C879.460144,364.291107 874.743408,361.110138 866.789185,360.936005 
	C863.958496,360.874023 861.114319,361.077179 858.296265,360.877411 
	C855.000793,360.643768 853.970032,362.004913 854.016724,365.219421 
	C854.166504,375.545837 854.074219,385.875732 854.097656,397.146759 
M854.065308,349.438141 
	C854.065308,352.509766 854.065308,355.581421 854.065308,359.300537 
	C862.579224,357.826172 871.961365,362.489227 876.846497,353.500580 
	C880.865662,346.105560 881.209595,337.235199 876.108704,330.181702 
	C870.714050,322.721985 862.060608,326.947693 854.065308,325.924255 
	C854.065308,333.906738 854.065308,341.181610 854.065308,349.438141 
z"/>
<path fill="#EB8C4F" opacity="1.000000" stroke="none" 
	d="
M1164.165039,432.484711 
	C1166.258667,431.209534 1168.352173,429.934418 1170.445801,428.659271 
	C1170.752197,429.033020 1171.058594,429.406738 1171.364990,429.780487 
	C1164.833252,441.946503 1158.301514,454.112488 1151.769653,466.278503 
	C1152.155151,466.671234 1152.540527,467.063995 1152.925903,467.456726 
	C1155.508545,466.611847 1158.071533,465.698975 1160.679443,464.940887 
	C1163.390015,464.152954 1166.133545,462.981720 1168.881714,462.926483 
	C1173.944702,462.824768 1176.572388,460.394135 1178.093506,455.830414 
	C1178.491943,454.634674 1180.227295,453.884552 1181.348633,452.929749 
	C1181.453125,454.385986 1181.990479,455.981049 1181.576660,457.271118 
	C1180.549927,460.473236 1179.089233,463.536163 1177.802734,466.654968 
	C1178.406372,467.014252 1179.010010,467.373566 1179.613647,467.732880 
	C1184.005737,462.173492 1188.397949,456.614136 1192.790039,451.054749 
	C1193.277222,451.284912 1193.764404,451.515045 1194.251587,451.745209 
	C1192.981934,454.829712 1191.571533,457.865448 1190.482178,461.012329 
	C1189.376709,464.205444 1188.588135,467.508270 1187.266968,472.145813 
	C1195.635742,468.706879 1200.062378,463.668945 1202.970093,457.134125 
	C1208.501587,444.702759 1215.583740,433.284424 1225.481201,423.877167 
	C1227.483154,421.974243 1231.727173,419.706970 1233.259399,420.573822 
	C1236.974976,422.676086 1234.181763,426.361664 1232.676147,428.815735 
	C1225.467651,440.565765 1218.000610,452.158844 1210.503784,463.728790 
	C1209.350464,465.508789 1207.843262,467.552124 1206.016968,468.309509 
	C1200.877563,470.440887 1200.787720,474.636200 1200.938843,478.978027 
	C1201.081909,483.088043 1203.368652,484.700226 1206.830811,482.560852 
	C1210.730347,480.151123 1214.151733,476.902496 1217.547729,473.765961 
	C1219.796875,471.688629 1221.635254,469.166687 1223.657593,466.843750 
	C1224.092773,467.147430 1224.527954,467.451111 1224.963135,467.754791 
	C1224.792603,468.739136 1224.964111,470.034271 1224.396973,470.658356 
	C1220.167236,475.313202 1216.230103,480.388611 1211.349731,484.258270 
	C1205.319092,489.039948 1198.579956,485.541229 1197.884399,477.817963 
	C1197.662598,475.355194 1197.849609,472.855591 1197.849609,470.327057 
	C1194.994263,471.511078 1191.953369,473.936584 1189.504517,473.440369 
	C1187.317017,472.997162 1185.782837,469.328613 1183.580078,466.614685 
	C1181.121216,467.339966 1180.995361,474.432953 1175.791870,471.999817 
	C1174.265625,471.286163 1173.984741,467.909241 1172.821411,464.963654 
	C1164.456665,465.179474 1156.654419,468.859344 1148.802856,473.868256 
	C1158.600586,480.200562 1161.271118,487.883240 1152.812378,499.723846 
	C1151.305298,501.833435 1147.484619,503.617981 1144.954346,503.361542 
	C1141.028442,502.963623 1139.439453,499.176910 1140.030273,495.341644 
	C1140.886108,489.785492 1142.226440,484.303986 1143.405151,478.571869 
	C1141.286133,478.362000 1138.998413,478.709930 1137.308228,477.864136 
	C1131.390259,474.902863 1130.885132,473.737000 1132.919312,467.203705 
	C1134.246582,462.941376 1136.084717,458.810455 1138.040894,454.789398 
	C1138.586670,453.667633 1140.365845,453.145844 1141.579346,452.348816 
	C1141.672119,453.776581 1142.241455,455.387665 1141.774780,456.600220 
	C1139.812012,461.702271 1137.539917,466.685242 1135.262939,472.350037 
	C1135.597900,473.290253 1136.051025,473.592255 1136.504150,473.894226 
	C1141.199097,469.083191 1146.485352,464.706696 1150.427490,459.342438 
	C1154.612305,453.648041 1157.606201,447.060699 1160.918701,440.757355 
	C1161.606689,439.448242 1161.410645,437.674530 1162.145020,435.988525 
	C1163.166992,434.736328 1163.666016,433.610535 1164.165039,432.484711 
M1226.630127,435.093292 
	C1228.516113,431.304688 1230.401978,427.516083 1232.287964,423.727478 
	C1231.838867,423.478455 1231.389771,423.229462 1230.940552,422.980438 
	C1218.854492,434.954254 1209.510986,448.702362 1204.601196,465.432373 
	C1206.027100,464.695831 1206.951538,463.530975 1207.798096,462.311981 
	C1213.951538,453.451355 1220.089355,444.579773 1226.630127,435.093292 
M1146.981934,482.511292 
	C1145.745972,488.502075 1144.510132,494.492859 1143.125000,501.206970 
	C1150.004272,499.270477 1155.158813,491.077576 1154.525879,484.724152 
	C1154.167480,481.125275 1153.472900,477.425110 1148.300171,477.265350 
	C1147.874023,478.873047 1147.496948,480.295532 1146.981934,482.511292 
M1178.599976,467.061310 
	C1178.530273,467.282288 1178.460571,467.503296 1178.390869,467.724274 
	C1178.608276,467.648010 1178.825562,467.571747 1178.599976,467.061310 
z"/>
<path fill="#E98C4F" opacity="1.000000" stroke="none" 
	d="
M1118.302490,468.823242 
	C1117.978882,469.202332 1117.729858,469.727478 1117.319580,469.936646 
	C1114.786499,471.228271 1111.959473,473.746643 1109.736328,473.305664 
	C1107.755005,472.912659 1106.427979,469.220032 1104.454712,466.488586 
	C1101.685059,467.464874 1100.263672,477.907715 1094.474609,470.531158 
	C1089.979370,471.524902 1085.175049,474.235504 1082.270142,472.878967 
	C1076.579590,470.221588 1081.259399,464.781281 1081.856567,458.867096 
	C1079.385376,461.051331 1077.787354,462.195984 1076.528442,463.636902 
	C1074.452637,466.013031 1072.726807,468.700836 1070.595093,471.019806 
	C1069.438599,472.277802 1067.748413,473.045166 1066.298950,474.033783 
	C1065.327271,472.501984 1064.355713,470.970184 1063.149414,469.068542 
	C1061.312988,470.117676 1059.105591,471.498077 1056.795532,472.677155 
	C1048.226196,477.050934 1043.415405,474.155396 1042.418701,463.801575 
	C1038.523926,463.864716 1035.389648,464.826416 1033.979248,469.052979 
	C1033.356079,470.920197 1032.226807,472.618530 1030.791992,474.700104 
	C1029.554810,475.003479 1028.852905,475.000305 1028.181274,474.674408 
	C1028.396851,473.733032 1028.582153,473.114380 1028.838135,472.253845 
	C1028.521240,471.921570 1028.133545,471.831207 1027.445190,471.886658 
	C1023.389038,476.346039 1019.633484,480.659607 1015.921936,484.970245 
	C1015.965942,484.967316 1015.959900,484.879364 1015.734497,484.899963 
	C1015.668640,485.240997 1015.828247,485.561432 1016.001099,486.220642 
	C1016.007629,487.011017 1016.000732,487.462555 1015.993835,487.914124 
	C1011.227173,485.749359 1011.072571,484.807831 1014.031738,481.153473 
	C1013.183350,478.010498 1011.682495,475.467865 1012.009521,473.187347 
	C1014.760010,454.004486 1022.394165,437.163757 1037.077881,424.066254 
	C1038.555542,422.748291 1041.072021,422.595245 1043.106445,421.901611 
	C1043.078857,424.184875 1043.895386,426.979584 1042.876099,428.662170 
	C1038.661621,435.619049 1033.899414,442.244843 1029.318726,448.978729 
	C1028.319580,450.447662 1027.238770,451.861115 1026.102417,453.428741 
	C1028.942749,454.081573 1031.863525,454.002930 1033.663574,455.384369 
	C1035.355835,456.682831 1035.864868,459.522797 1036.988281,461.881470 
	C1041.647095,462.988831 1045.009033,461.085968 1047.596924,456.345276 
	C1049.424438,452.997345 1052.043091,449.133392 1057.078247,452.389954 
	C1060.449829,454.570587 1061.614258,457.564575 1058.952759,460.775238 
	C1056.767944,463.410797 1053.894897,465.496582 1051.219604,467.695526 
	C1050.007446,468.692017 1048.535156,469.372223 1046.366577,470.691071 
	C1052.834351,471.745636 1057.166992,469.040405 1060.983521,466.070068 
	C1066.340576,461.900604 1071.061035,456.923645 1076.217896,452.482727 
	C1080.614868,448.696259 1082.925171,449.016724 1085.730347,453.896271 
	C1086.482666,455.205048 1086.335815,457.372528 1085.902222,458.953918 
	C1084.827759,462.871979 1083.349121,466.679138 1081.651855,471.645813 
	C1088.469238,469.885193 1092.994995,467.026123 1095.977051,462.017456 
	C1097.243530,459.890350 1097.839966,457.363800 1099.110107,455.239563 
	C1099.720215,454.219147 1101.187866,453.711517 1102.267212,452.971741 
	C1102.352173,454.314941 1102.828369,455.784271 1102.444214,456.976196 
	C1101.529419,459.813812 1100.155151,462.500092 1099.088623,465.294128 
	C1098.831909,465.966614 1099.050659,466.820496 1100.010986,468.219360 
	C1104.515991,462.496094 1109.020996,456.772827 1113.526001,451.049561 
	C1113.947144,451.209320 1114.368286,451.369049 1114.789429,451.528809 
	C1112.594238,457.871643 1110.398926,464.214478 1108.203613,470.557312 
	C1108.739502,470.825989 1109.275269,471.094666 1109.811157,471.363342 
	C1116.207520,468.924377 1120.328979,464.133698 1123.230835,457.804260 
	C1124.752686,462.870941 1120.607300,465.415344 1118.302490,468.823242 
M1071.699951,463.924225 
	C1071.641235,464.122406 1071.582642,464.320587 1071.523926,464.518768 
	C1071.671631,464.338531 1071.819336,464.158264 1072.479736,463.890320 
	C1072.669312,463.611420 1072.858887,463.332550 1073.580811,462.853485 
	C1073.914673,462.401733 1074.248535,461.949982 1075.056641,461.059509 
	C1076.731812,459.061279 1078.406982,457.063049 1080.446411,454.891602 
	C1080.493286,454.613007 1080.540039,454.334412 1080.586914,454.055786 
	C1080.191772,454.171539 1079.796509,454.287262 1078.851929,454.762146 
	C1077.187378,456.801422 1075.522827,458.840698 1073.361816,461.124146 
	C1073.037109,461.570618 1072.712402,462.017120 1072.070679,462.955353 
	C1072.072021,463.325714 1072.073364,463.696106 1071.699951,463.924225 
M1024.438232,470.982513 
	C1026.260986,469.530548 1028.128174,468.130432 1029.897095,466.615662 
	C1033.410889,463.606903 1033.708984,460.041107 1031.974487,455.975220 
	C1024.445068,458.426758 1015.510437,471.180115 1016.511047,478.401276 
	C1019.161865,475.919952 1021.537720,473.695953 1024.438232,470.982513 
M1024.937256,444.499817 
	C1023.906677,447.082306 1022.876160,449.664764 1021.845642,452.247253 
	C1022.228455,452.418884 1022.611328,452.590546 1022.994141,452.762177 
	C1030.062256,443.930634 1037.565308,435.383698 1042.002319,424.830627 
	C1041.366333,424.380371 1040.730225,423.930115 1040.094116,423.479858 
	C1035.142578,430.261444 1030.191162,437.043060 1024.937256,444.499817 
M1052.700195,456.041046 
	C1050.623291,459.081299 1048.546387,462.121521 1046.469360,465.161743 
	C1053.484741,463.282959 1057.043701,458.955750 1056.594604,453.667908 
	C1055.302002,454.351807 1054.243530,454.911896 1052.700195,456.041046 
M1081.893188,459.639893 
	C1081.698853,459.578613 1081.504517,459.517365 1081.310181,459.456085 
	C1081.377197,459.646851 1081.444092,459.837616 1081.893188,459.639893 
M1025.984619,454.542938 
	C1025.802734,454.483429 1025.620728,454.423889 1025.438843,454.364380 
	C1025.500854,454.546997 1025.562744,454.729614 1025.984619,454.542938 
z"/>
<path fill="#A1A3A3" opacity="1.000000" stroke="none" 
	d="
M924.050476,343.997192 
	C924.050476,349.448914 924.050476,354.402283 924.050476,359.199829 
	C936.062561,361.677429 937.869263,360.639679 943.068359,349.126923 
	C943.068359,357.053375 943.068359,364.979797 943.068359,373.809998 
	C937.272949,361.076355 936.483643,360.612549 924.459839,362.518555 
	C924.459839,374.677246 924.459839,386.906311 924.459839,399.505707 
	C932.052551,399.505707 939.682983,400.130463 947.153198,399.304840 
	C952.963989,398.662659 955.080017,393.241333 956.682434,388.184540 
	C957.645386,385.145538 958.404602,382.041992 959.255310,378.967438 
	C959.721375,379.028778 960.187439,379.090118 960.653503,379.151428 
	C960.653503,385.851196 960.801819,392.557922 960.487976,399.242950 
	C960.442688,400.208618 958.179871,401.856384 956.937988,401.861206 
	C939.294189,401.929871 921.649353,401.770020 904.004883,401.652435 
	C903.899414,401.651733 903.795166,401.468903 903.096741,400.817047 
	C904.679016,400.502136 905.845459,399.958649 906.912964,400.110474 
	C912.016296,400.836304 912.959595,398.345306 912.913513,393.786591 
	C912.709656,373.626984 912.835022,353.464203 912.821411,333.302551 
	C912.816284,325.726532 913.147644,325.767517 905.992065,325.949768 
	C905.110901,325.972198 904.220459,325.626831 903.287781,324.476044 
	C904.619141,324.322296 905.950073,324.038300 907.281860,324.034790 
	C922.111328,323.995483 936.942383,324.109619 951.769714,323.922546 
	C956.028748,323.868774 957.922729,325.256744 957.748657,329.643677 
	C957.547424,334.712921 957.701782,339.796295 957.701782,344.873505 
	C957.191956,344.929993 956.682129,344.986450 956.172302,345.042908 
	C955.776245,343.071594 955.420654,341.091125 954.977295,339.130493 
	C952.841492,329.683838 948.226807,326.004150 938.526367,325.987488 
	C933.912292,325.979553 929.298218,325.986115 924.050476,325.986115 
	C924.050476,332.268707 924.050476,337.883759 924.050476,343.997192 
z"/>
<path fill="#A0A2A2" opacity="1.000000" stroke="none" 
	d="
M1148.985596,323.990601 
	C1163.076172,323.967346 1163.076050,323.967346 1163.072998,337.356110 
	C1163.072510,339.824493 1163.072998,342.292877 1163.072998,344.761230 
	C1162.636230,344.841431 1162.199463,344.921600 1161.762817,345.001770 
	C1161.461182,343.589325 1161.128052,342.182739 1160.863281,340.763458 
	C1158.843872,329.942017 1154.136353,326.003510 1143.180542,325.993591 
	C1140.347656,325.991028 1137.489990,326.231415 1134.687622,325.939880 
	C1130.571777,325.511719 1129.562012,327.396606 1129.650513,331.134827 
	C1129.839844,339.129211 1129.841797,347.134369 1129.650024,355.128632 
	C1129.563721,358.726837 1130.614380,360.101196 1134.448975,360.070282 
	C1143.739380,359.995331 1143.935669,360.029236 1148.473389,349.176605 
	C1148.473389,357.028534 1148.473389,364.880463 1148.473389,372.732391 
	C1148.272583,372.831238 1148.071655,372.930084 1147.870850,373.028961 
	C1147.291748,371.148956 1146.764771,369.250946 1146.123047,367.392548 
	C1144.546753,362.827850 1134.575439,359.497711 1130.858276,362.451569 
	C1130.041626,363.100586 1129.779419,364.821014 1129.769165,366.052246 
	C1129.686035,376.050110 1129.785645,386.049530 1129.687256,396.047089 
	C1129.657349,399.076508 1130.854370,400.184265 1133.844238,400.075562 
	C1138.337646,399.912170 1142.841675,400.071930 1147.340576,400.027222 
	C1155.168091,399.949432 1158.957031,397.333923 1161.543701,389.949463 
	C1162.823364,386.295746 1163.736084,382.513458 1164.814819,378.789368 
	C1165.263428,378.853699 1165.712036,378.918060 1166.160645,378.982391 
	C1166.160645,385.576752 1166.335449,392.180206 1165.993408,398.756775 
	C1165.934448,399.890503 1163.688599,401.831635 1162.438110,401.843506 
	C1144.946045,402.009979 1127.451416,401.908081 1109.957520,401.844299 
	C1109.715088,401.843414 1109.473877,401.493744 1108.248535,400.546753 
	C1111.867920,400.214172 1114.627319,399.960602 1117.759277,399.672821 
	C1117.759277,375.238525 1117.759277,351.012512 1117.759277,326.399811 
	C1114.773315,326.128571 1111.932861,325.870575 1109.092529,325.612549 
	C1109.106201,325.072510 1109.119751,324.532501 1109.133423,323.992462 
	C1122.251953,323.992462 1135.370483,323.992462 1148.985596,323.990601 
z"/>
<path fill="#A3A4A4" opacity="1.000000" stroke="none" 
	d="
M555.371704,324.197815 
	C556.473999,325.185669 557.685974,326.058472 557.712524,326.965820 
	C557.885437,332.889130 557.801514,338.819946 556.629822,344.957031 
	C556.127991,342.888184 555.642029,340.815308 555.121582,338.751099 
	C552.779785,329.463196 548.376648,325.999878 538.888306,325.980896 
	C535.389709,325.973877 531.885681,326.110199 528.394165,325.954865 
	C525.345825,325.819214 524.251770,327.145416 524.280029,330.082336 
	C524.363342,338.744659 524.371155,347.408936 524.280640,356.071106 
	C524.248352,359.157959 525.727905,359.734894 528.537659,360.090637 
	C537.150024,361.180969 541.860474,357.630280 542.215027,348.089661 
	C542.624512,348.428864 543.033936,348.768097 543.443420,349.107300 
	C543.443420,356.991028 543.443420,364.874725 543.443420,372.758453 
	C543.211975,372.809143 542.980530,372.859802 542.749146,372.910492 
	C542.420166,372.088623 542.019714,371.287567 541.773315,370.441650 
	C539.463806,362.512421 538.622559,362.143829 530.196716,361.843842 
	C525.594482,361.679962 524.058228,363.157166 524.203430,367.752625 
	C524.492676,376.906616 524.408386,386.078186 524.239502,395.238068 
	C524.171509,398.926147 525.502502,400.307617 529.195068,400.109253 
	C533.680481,399.868347 538.190491,399.960144 542.686157,400.066803 
	C549.416565,400.226532 553.769226,396.978333 555.968750,390.821930 
	C557.346741,386.964874 558.356506,382.976257 560.655945,379.123230 
	C560.655945,386.056671 560.748352,392.993256 560.515747,399.918884 
	C560.491943,400.626984 558.523621,401.848969 557.450928,401.856232 
	C539.654968,401.977539 521.857910,401.942627 504.061127,401.942627 
	C504.008789,401.516296 503.956421,401.089996 503.904083,400.663666 
	C506.723694,400.318451 509.543304,399.973267 512.667847,399.590729 
	C512.667847,375.204895 512.667847,350.971741 512.667847,326.340973 
	C509.607452,326.102875 506.704102,325.877014 503.800751,325.651154 
	C503.800720,325.133667 503.800690,324.616211 503.800659,324.098724 
	C520.844849,324.098724 537.889038,324.098724 555.371704,324.197815 
z"/>
<path fill="#A3A4A4" opacity="1.000000" stroke="none" 
	d="
M659.022583,397.575562 
	C657.798401,399.338104 656.607239,401.762726 655.382874,401.779602 
	C637.592529,402.024994 619.797729,401.947906 602.004028,401.947906 
	C601.953186,401.507935 601.902344,401.067993 601.851501,400.628021 
	C604.703674,400.292297 607.555847,399.956573 610.688538,399.587830 
	C610.688538,375.155792 610.688538,350.923645 610.688538,326.350677 
	C607.577576,326.097931 604.689575,325.863312 601.801575,325.628693 
	C601.764832,325.298706 601.728149,324.968750 601.691406,324.638794 
	C602.799744,324.434479 603.907471,324.055664 605.016357,324.052216 
	C620.176331,324.004791 635.336975,324.073151 650.496216,323.955505 
	C654.230164,323.926514 656.088257,325.123260 655.953064,329.118408 
	C655.776367,334.336334 655.909790,339.564728 655.909790,344.788635 
	C655.463989,344.838715 655.018250,344.888794 654.572449,344.938873 
	C654.043640,342.661621 653.580994,340.366577 652.974304,338.110260 
	C650.634460,329.407990 646.197021,325.909882 637.231201,326.020416 
	C632.471375,326.079071 626.196350,324.866577 623.418457,327.360931 
	C620.993286,329.538574 622.412659,336.103912 622.311035,340.734650 
	C622.201416,345.729889 622.406372,350.732758 622.266174,355.726410 
	C622.174988,358.973877 623.499451,360.001007 626.704834,360.059052 
	C636.220520,360.231323 637.056885,359.748077 639.997192,350.460327 
	C640.164185,349.932831 640.550049,349.474609 641.517456,347.803864 
	C641.517456,356.986389 641.517456,364.825195 641.517456,372.664001 
	C641.260498,372.775940 641.003479,372.887878 640.746521,372.999817 
	C640.312134,371.778809 639.812195,370.576630 639.454285,369.333588 
	C637.578064,362.817230 630.296753,359.352844 624.101562,362.262878 
	C623.215759,362.678986 622.422607,364.320587 622.408875,365.405426 
	C622.278076,375.732361 622.357178,386.061737 622.299927,396.389954 
	C622.283997,399.253937 623.703247,400.125488 626.344543,400.069977 
	C631.007019,399.971924 635.673706,400.091309 640.337708,400.039429 
	C647.890015,399.955475 651.610352,397.388153 654.181458,390.207855 
	C655.494202,386.541840 656.422485,382.738159 657.524597,378.996704 
	C658.029724,379.040588 658.534912,379.084473 659.040039,379.128387 
	C659.040039,385.124878 659.040039,391.121399 659.022583,397.575562 
z"/>
<path fill="#A1A3A3" opacity="1.000000" stroke="none" 
	d="
M696.621948,353.623840 
	C699.733215,354.490936 702.474670,355.189392 705.192566,355.969879 
	C718.986572,359.930908 724.967651,370.437683 721.370789,384.350159 
	C717.212402,400.434692 700.969299,408.477020 685.724854,401.882446 
	C682.845520,400.636841 680.205566,398.837708 677.044128,397.063293 
	C675.317017,399.041260 673.468567,401.158173 670.634216,404.404175 
	C670.634216,395.401550 670.634216,387.990570 670.634216,380.579620 
	C671.002197,380.479889 671.370178,380.380157 671.738159,380.280457 
	C672.504883,382.157349 673.249207,384.043732 674.041870,385.909576 
	C679.386780,398.490936 692.013855,404.935486 703.490845,400.831268 
	C710.123413,398.459412 714.277954,393.825836 715.508057,386.772125 
	C716.755981,379.615601 714.154419,374.200104 707.442688,371.457336 
	C701.296387,368.945618 694.906128,367.025970 688.606689,364.894653 
	C676.221497,360.704407 670.472229,352.613464 672.128052,341.635498 
	C673.797913,330.564545 683.313293,322.856384 695.709534,322.923523 
	C699.308960,322.942993 703.042175,323.469604 706.469360,324.544067 
	C712.575439,326.458282 712.497498,326.706970 717.503052,322.690826 
	C717.503052,330.152313 717.503052,337.196594 717.503052,344.240906 
	C717.186035,344.333435 716.868958,344.425934 716.551941,344.518463 
	C715.985718,342.604950 715.482605,340.670044 714.842896,338.781403 
	C710.767212,326.748993 698.311096,321.436401 686.999268,326.953583 
	C681.740356,329.518585 678.849304,333.723267 679.062256,339.695068 
	C679.265625,345.400543 682.502869,348.854584 687.719971,350.655273 
	C690.549744,351.631897 693.400146,352.548981 696.621948,353.623840 
z"/>
<path fill="#A3A4A4" opacity="1.000000" stroke="none" 
	d="
M789.576416,334.663635 
	C784.735474,326.648254 780.458313,324.546600 771.461731,326.179596 
	C770.241394,326.401093 768.537964,328.750732 768.526550,330.127167 
	C768.343384,352.120087 768.424377,374.115112 768.372070,396.109467 
	C768.364807,399.164246 769.691406,400.272949 772.627136,400.085297 
	C774.304810,399.978058 776.005432,400.229645 777.695679,400.319641 
	C777.679077,400.721375 777.662537,401.123108 777.645935,401.524841 
	C767.750732,401.524841 757.855469,401.524841 747.960266,401.524841 
	C747.913757,401.192657 747.867249,400.860443 747.820740,400.528259 
	C750.594849,400.258911 753.368958,399.989594 756.596802,399.676208 
	C756.596802,375.329834 756.596802,350.976990 756.596802,326.267517 
	C750.346863,326.113647 743.597046,324.015472 739.339111,329.946014 
	C735.927429,334.697937 733.906494,340.448303 730.080627,345.625519 
	C730.755066,338.995239 731.336487,332.352264 732.239136,325.753235 
	C732.335999,325.045380 734.300110,324.102173 735.402893,324.095825 
	C753.564331,323.990662 771.726990,323.969482 789.887695,324.122070 
	C791.155029,324.132721 793.382446,325.522980 793.512329,326.492828 
	C794.360840,332.828522 794.753784,339.225281 795.295654,345.602051 
	C794.744507,345.744446 794.193298,345.886841 793.642151,346.029205 
	C792.347961,342.351624 791.053833,338.674011 789.576416,334.663635 
z"/>
<path fill="#A1A3A3" opacity="1.000000" stroke="none" 
	d="
M330.622650,366.219879 
	C333.781342,375.758209 336.999298,384.868256 339.726440,394.122925 
	C340.977325,398.367798 342.641205,401.014679 347.570587,400.111816 
	C348.679565,399.908691 349.920258,400.424683 351.008972,401.567505 
	C340.141602,401.567505 329.274200,401.567505 318.406830,401.567505 
	C318.370941,401.183411 318.335052,400.799316 318.299164,400.415222 
	C321.753418,400.187653 325.207672,399.960052 329.555603,399.673584 
	C327.166290,392.662140 325.044281,386.060425 322.567474,379.594635 
	C322.219696,378.686737 320.148834,378.011200 318.851471,377.969116 
	C313.360992,377.790894 307.855865,377.758759 302.368988,377.985535 
	C300.982819,378.042847 298.811401,378.941925 298.420288,379.985931 
	C296.044098,386.329102 294.078491,392.826080 291.703674,400.105835 
	C296.548889,400.105835 300.592712,400.105835 304.636536,400.105835 
	C304.634308,400.535675 304.632080,400.965546 304.629822,401.395386 
	C296.527496,401.395386 288.425171,401.395386 280.322845,401.395386 
	C280.270264,401.187897 280.217682,400.980408 280.165100,400.772888 
	C280.986420,400.537201 281.864990,399.981781 282.619934,400.116882 
	C288.186218,401.112946 290.299500,398.347992 291.889404,393.295105 
	C298.682159,371.707367 305.910187,350.256531 312.994690,328.760773 
	C313.604126,326.911743 314.325684,325.099731 314.995117,323.270508 
	C315.455688,323.221130 315.916260,323.171753 316.376862,323.122406 
	C321.078339,337.365173 325.779846,351.607910 330.622650,366.219879 
M306.534210,355.016449 
	C304.339386,361.753296 302.144531,368.490112 299.875610,375.454224 
	C307.333771,375.454224 314.009979,375.454224 321.434143,375.454224 
	C317.854248,364.762909 314.494934,354.730316 311.135620,344.697754 
	C310.738800,344.756256 310.341980,344.814758 309.945160,344.873260 
	C308.897827,348.007385 307.850494,351.141510 306.534210,355.016449 
z"/>
<path fill="#9EA1A2" opacity="1.000000" stroke="none" 
	d="
M1047.520996,326.666779 
	C1044.531006,326.085480 1041.858521,325.828003 1039.186157,325.570557 
	C1039.212769,325.209381 1039.239380,324.848175 1039.265991,324.487000 
	C1049.471558,324.487000 1059.677124,324.487000 1069.882812,324.487000 
	C1069.929199,324.758240 1069.975586,325.029480 1070.021973,325.300720 
	C1069.050537,325.530609 1068.086304,325.920593 1067.106567,325.964752 
	C1059.863403,326.291351 1059.854004,326.269714 1059.852905,333.279541 
	C1059.849731,353.766205 1059.950928,374.253754 1059.773682,394.738861 
	C1059.737915,398.854767 1060.943115,400.341064 1065.130371,400.113800 
	C1070.942993,399.798309 1076.785522,400.073486 1082.614624,400.019043 
	C1090.447998,399.945862 1094.217041,397.333527 1096.801758,389.938141 
	C1098.042969,386.386658 1098.893311,382.698608 1099.920776,379.072449 
	C1100.524414,379.096558 1101.128174,379.120697 1101.731812,379.144806 
	C1101.731812,382.562897 1101.721436,385.980988 1101.733521,389.399048 
	C1101.786011,404.171021 1102.160889,401.925415 1089.111572,402.007904 
	C1074.288452,402.101624 1059.464355,402.029541 1044.640625,402.029541 
	C1042.845947,402.029541 1041.051147,402.029541 1039.256470,402.029541 
	C1039.205811,401.543976 1039.155029,401.058380 1039.104370,400.572815 
	C1040.682373,400.392731 1042.275757,399.979065 1043.835083,400.081787 
	C1046.958618,400.287506 1048.351929,399.248077 1048.336060,395.892761 
	C1048.230347,373.574768 1048.261963,351.256165 1048.226318,328.937775 
	C1048.225220,328.288513 1047.973511,327.639679 1047.520996,326.666779 
z"/>
<path fill="#A1A3A3" opacity="1.000000" stroke="none" 
	d="
M411.508606,339.269653 
	C416.629639,354.238739 421.602295,368.843719 426.574921,383.448700 
	C427.046204,383.477509 427.517487,383.506348 427.988770,383.535156 
	C434.043823,364.706207 440.098846,345.877289 446.349182,326.441101 
	C442.941376,326.134949 440.106689,325.880310 437.271973,325.625641 
	C437.280945,325.295746 437.289917,324.965881 437.298889,324.635986 
	C443.744720,324.635986 450.190521,324.635986 456.760010,324.635986 
	C456.524475,325.128601 456.355469,325.648193 456.271179,325.634766 
	C449.470764,324.553558 447.897339,329.026459 446.260956,334.290253 
	C439.688263,355.432770 432.803192,376.478271 426.014374,397.553436 
	C425.421661,399.393494 424.688751,401.188416 422.753326,403.170776 
	C421.910767,401.383728 420.885284,399.658875 420.253479,397.800171 
	C412.966858,376.363342 405.605225,354.950073 398.595337,333.422455 
	C396.924744,328.292053 395.142273,324.501068 388.837006,325.936005 
	C388.380920,326.039764 387.838989,325.882202 387.365265,325.747070 
	C387.098297,325.670959 386.889130,325.392120 385.832306,324.549469 
	C396.710327,324.549469 406.675507,324.549469 416.640686,324.549469 
	C416.669037,324.893951 416.697388,325.238403 416.725739,325.582886 
	C413.762329,325.824799 410.798889,326.066711 407.261566,326.355499 
	C408.697510,330.752441 410.028839,334.828979 411.508606,339.269653 
z"/>
<path fill="#A5A5A5" opacity="1.000000" stroke="none" 
	d="
M251.999725,402.004639 
	C238.238205,402.004639 224.976608,402.004639 211.715027,402.004639 
	C211.670334,401.529205 211.625641,401.053741 211.580948,400.578308 
	C214.477402,400.284058 217.373856,399.989777 220.616028,399.660400 
	C220.616028,375.300568 220.616028,351.079224 220.616028,326.352539 
	C217.627869,326.110046 214.646088,325.868103 211.664291,325.626129 
	C211.687469,325.270111 211.710648,324.914093 211.733826,324.558075 
	C221.907349,324.558075 232.080887,324.558075 242.254425,324.558075 
	C242.295059,324.896423 242.335693,325.234741 242.376328,325.573090 
	C239.267166,325.804230 236.157990,326.035370 232.482025,326.308624 
	C232.369339,328.111633 232.165329,329.872772 232.163483,331.634125 
	C232.141479,352.612457 232.272339,373.592041 232.050934,394.568054 
	C232.004059,399.007721 233.330307,400.411163 237.704117,400.150024 
	C243.510849,399.803284 249.354034,400.101044 255.180878,400.048462 
	C262.983704,399.978088 266.700958,397.370087 269.306458,389.921021 
	C270.548981,386.368622 271.439972,382.693268 273.666901,379.145691 
	C273.666901,386.061554 273.815460,392.985046 273.460968,399.882690 
	C273.420959,400.661835 270.568604,401.826294 268.978180,401.899780 
	C263.495422,402.153046 257.993988,402.001801 251.999725,402.004639 
z"/>
<path fill="#A5A5A5" opacity="1.000000" stroke="none" 
	d="
M990.148071,392.858582 
	C990.203247,400.052856 990.203247,400.057648 996.968994,400.064545 
	C1002.297363,400.069977 1007.626038,400.094910 1012.954102,400.051636 
	C1021.039856,399.986023 1024.766357,397.358673 1027.410400,389.666626 
	C1028.612793,386.168762 1029.513062,382.567078 1030.550293,379.012482 
	C1030.985107,379.065826 1031.419922,379.119171 1031.854736,379.172516 
	C1031.854736,385.848297 1032.002441,392.531006 1031.692139,399.192352 
	C1031.646729,400.166382 1029.423828,401.832550 1028.200928,401.839569 
	C1008.894470,401.950317 989.586731,401.843536 970.279358,401.757141 
	C970.094360,401.756317 969.911255,401.357147 969.153381,400.479004 
	C972.458679,400.226501 975.288391,400.010345 978.544434,399.761627 
	C978.544434,375.330780 978.544434,350.983521 978.544434,326.311859 
	C975.497986,326.082336 972.600708,325.864105 969.703369,325.645844 
	C969.706726,325.317474 969.710144,324.989136 969.713501,324.660767 
	C979.890137,324.660767 990.066711,324.660767 1000.243347,324.660767 
	C1000.292419,324.928528 1000.341431,325.196259 1000.390442,325.464020 
	C997.206116,325.764191 994.021851,326.064362 990.147949,326.429504 
	C990.147949,348.524811 990.147949,370.451080 990.148071,392.858582 
z"/>
<path fill="#EB8C4F" opacity="1.000000" stroke="none" 
	d="
M855.010803,469.031921 
	C856.990967,464.111725 858.853088,459.137695 861.051453,454.317017 
	C861.488892,453.357758 863.213623,452.985565 864.344788,452.342712 
	C864.498657,453.642548 865.152832,455.148102 864.717957,456.205902 
	C863.015869,460.345886 860.875977,464.303894 859.098938,468.416016 
	C858.406799,470.017670 858.244263,471.848236 858.740051,474.296234 
	C860.381592,473.138000 862.399475,472.278656 863.598572,470.769012 
	C868.436584,464.678131 873.341553,458.596710 877.606873,452.107513 
	C881.523865,446.148010 884.532654,439.598633 888.195801,433.460907 
	C889.350464,431.526184 891.326355,430.081604 892.926453,428.412689 
	C893.423462,428.836578 893.920471,429.260437 894.417542,429.684296 
	C887.859253,441.890839 881.301025,454.097351 874.742737,466.303894 
	C875.159851,466.631561 875.576965,466.959229 875.994080,467.286926 
	C881.027527,465.852173 885.982727,463.851532 891.116394,463.141968 
	C896.236938,462.434296 899.830322,460.723114 902.404968,456.005981 
	C903.550537,453.907043 906.579956,451.531738 908.739746,451.545715 
	C914.295837,451.581696 916.466187,457.084351 912.987122,461.513367 
	C911.475098,463.438293 909.460815,465.021912 907.490540,466.518219 
	C905.675537,467.896545 903.613892,468.950165 901.476868,470.259644 
	C906.322693,471.516693 909.637451,470.557770 917.079041,464.906464 
	C921.669983,461.420013 925.822876,457.356903 930.228760,453.503387 
	C927.869629,461.821930 913.913757,473.562622 905.523682,474.353516 
	C900.359253,474.840363 897.721191,472.207489 896.549561,464.961060 
	C887.383423,465.226776 879.584534,468.898773 871.745605,473.865326 
	C882.451355,482.011261 883.686401,490.948486 875.501648,500.195007 
	C873.816101,502.099182 870.321899,503.629364 867.884644,503.354156 
	C864.209229,502.939148 862.493774,499.439056 863.033325,495.769867 
	C863.873413,490.057007 865.197144,484.415253 866.127869,479.696838 
	C862.313599,477.884460 858.825439,476.226990 855.174316,473.860229 
	C855.011230,471.777985 855.010986,470.404938 855.010803,469.031921 
M867.890625,490.580292 
	C867.550903,493.995178 867.211182,497.410095 866.809204,501.450714 
	C873.585327,498.521301 878.235779,490.531982 877.486450,484.365631 
	C877.061340,480.868011 876.292725,477.391815 871.306152,477.230774 
	C870.197632,481.461761 869.112549,485.603271 867.890625,490.580292 
M908.109253,461.546265 
	C909.551880,459.410950 910.994507,457.275635 912.910706,454.439362 
	C907.220215,454.703583 902.447205,460.454590 901.531006,466.924530 
	C903.774475,465.125397 905.693054,463.586792 908.109253,461.546265 
z"/>
<path fill="#9EA1A2" opacity="1.000000" stroke="none" 
	d="
M489.470398,324.001831 
	C491.168610,324.122040 492.436676,324.241669 493.704712,324.361267 
	C493.749115,324.731354 493.793518,325.101440 493.837891,325.471497 
	C492.569885,325.646881 491.260284,326.117126 490.041199,325.945251 
	C485.422577,325.294006 484.479187,327.547363 484.509186,331.674561 
	C484.658020,352.137604 484.568237,372.602325 484.578278,393.066437 
	C484.581482,399.628937 484.604767,399.611755 491.247894,400.071686 
	C492.108398,400.131256 492.949127,400.476074 493.696198,401.562317 
	C483.817871,401.562317 473.939514,401.562317 464.061188,401.562317 
	C464.017639,401.198853 463.974060,400.835388 463.930481,400.471954 
	C466.701965,400.221832 469.473450,399.971680 472.657196,399.684357 
	C472.657196,375.366577 472.657196,351.167694 472.657196,326.403503 
	C469.822235,326.145569 466.892822,325.879028 463.963440,325.612488 
	C463.988922,325.075409 464.014435,324.538330 464.039917,324.001251 
	C472.373352,324.001251 480.706757,324.001251 489.470398,324.001831 
z"/>
<path fill="#EB8C4F" opacity="1.000000" stroke="none" 
	d="
M948.504150,473.894257 
	C953.625183,468.541718 958.573792,463.009216 963.917053,457.888519 
	C969.012085,453.005676 974.420105,448.431030 979.900391,443.979187 
	C981.685669,442.528900 984.428162,441.545166 985.599243,444.725311 
	C985.853943,445.416840 983.592651,447.278259 982.246765,448.270691 
	C977.993530,451.406982 973.382690,454.110931 969.434021,457.578583 
	C968.078552,458.769012 967.134155,462.663239 967.977234,463.673004 
	C969.948608,466.034210 972.675659,468.244629 976.461853,465.212891 
	C980.455994,462.014740 985.004944,459.499481 989.377930,456.793213 
	C990.235657,456.262329 991.396667,456.221527 992.817871,456.753021 
	C987.537720,460.665283 982.257507,464.577545 977.035645,468.446655 
	C980.855591,476.496552 978.339661,482.232819 969.901489,484.500580 
	C968.123047,484.978546 965.149292,484.636108 964.175903,483.465881 
	C963.194946,482.286621 963.382996,479.291260 964.194519,477.654846 
	C965.540100,474.941437 967.795349,472.679199 969.721313,470.156433 
	C967.887695,468.082855 965.723877,465.635834 963.673828,463.317383 
	C960.359680,466.943512 957.319885,470.985748 953.523376,474.107788 
	C951.743042,475.571838 948.178223,476.166565 946.052551,475.402191 
	C944.855774,474.971802 944.051575,470.728394 944.628845,468.631805 
	C945.984070,463.709930 948.153992,458.990051 950.290588,454.324158 
	C950.729553,453.365570 952.461853,452.999237 953.598022,452.359924 
	C953.749817,453.637146 954.384216,455.102631 953.971863,456.159729 
	C951.926514,461.402924 949.605164,466.538391 947.262817,472.350067 
	C947.597839,473.290283 948.050964,473.592285 948.504150,473.894257 
M967.964355,476.452820 
	C966.979736,477.768372 965.995178,479.083893 964.604309,480.942291 
	C971.380615,481.548584 974.338196,478.104095 976.833130,473.628052 
	C972.465881,469.419128 970.929565,474.275085 967.964355,476.452820 
z"/>
<path fill="#E98C4F" opacity="1.000000" stroke="none" 
	d="
M1131.318237,439.400299 
	C1131.568115,438.335571 1131.818115,437.270813 1132.132568,435.931335 
	C1119.224976,436.771576 1106.723877,437.591492 1094.218994,438.346771 
	C1094.009033,438.359467 1093.751709,437.587067 1092.943970,436.192749 
	C1097.641479,435.890900 1101.745239,435.619446 1105.849976,435.365082 
	C1113.307007,434.903015 1120.760620,434.207123 1128.223389,434.087952 
	C1132.582642,434.018341 1135.126221,432.421844 1137.203979,428.563873 
	C1138.401978,426.339691 1138.733154,420.870300 1143.017578,423.204742 
	C1147.613647,425.709076 1142.215332,428.247101 1141.651489,430.859375 
	C1141.583008,431.176727 1141.485474,431.487762 1141.258301,432.335602 
	C1142.505249,432.485779 1143.676880,432.626831 1145.287476,432.972107 
	C1145.748169,433.564331 1145.769775,433.952393 1145.791382,434.340424 
	C1139.338623,433.496674 1136.910522,437.827942 1134.853394,442.748840 
	C1133.773193,445.332733 1132.477051,447.826416 1130.907959,450.381714 
	C1131.030762,447.264435 1131.523926,444.126282 1132.008423,440.997253 
	C1131.999634,441.006348 1131.986572,441.027649 1132.121338,440.920044 
	C1132.163330,440.525513 1132.070435,440.238556 1131.815186,439.810913 
	C1131.652710,439.670258 1131.318237,439.400299 1131.318237,439.400299 
z"/>
<path fill="#B17D55" opacity="1.000000" stroke="none" 
	d="
M1132.017212,440.988129 
	C1131.523926,444.126282 1131.030762,447.264435 1130.759155,450.693848 
	C1128.311768,458.139343 1125.642700,465.293518 1122.506592,472.981506 
	C1120.414551,478.181458 1118.841064,482.866791 1117.108765,487.492645 
	C1116.853149,488.174835 1115.846069,488.575562 1115.186646,489.106506 
	C1116.303711,482.662933 1117.420776,476.219330 1118.420166,469.299500 
	C1120.607300,465.415344 1124.752686,462.870941 1123.346436,457.469116 
	C1125.491455,451.905609 1127.771240,446.658081 1130.656006,441.188446 
	C1131.512939,440.973602 1131.765137,440.980865 1132.017212,440.988129 
z"/>
<path fill="#E98C4F" opacity="1.000000" stroke="none" 
	d="
M854.742920,469.233826 
	C855.010986,470.404938 855.011230,471.777985 855.010010,473.562927 
	C852.308960,472.810822 848.428772,475.123199 847.298584,478.569550 
	C845.828186,483.053406 833.529358,491.418976 829.004456,491.013123 
	C824.076172,490.571106 821.710815,484.556671 824.208862,477.974304 
	C824.568665,478.371582 824.543518,478.635101 824.518311,478.898621 
	C824.553528,478.901031 824.588684,478.903412 824.623901,478.905792 
	C824.684875,478.491791 824.745911,478.077759 824.806946,477.663757 
	C824.391418,477.627167 823.975952,477.590607 823.855225,477.051727 
	C825.686890,475.068634 827.223694,473.587860 828.760498,472.107056 
	C828.024719,475.148926 827.055420,478.159058 826.636292,481.243958 
	C826.363220,483.253967 826.890198,485.372650 827.058777,487.442688 
	C829.040039,486.970428 831.416626,487.040588 832.935364,485.933685 
	C840.242249,480.608490 847.317566,474.965759 854.742920,469.233826 
z"/>
<path fill="#A47A56" opacity="1.000000" stroke="none" 
	d="
M828.935364,471.773376 
	C827.223694,473.587860 825.686890,475.068634 823.784912,476.710175 
	C827.698120,465.333313 831.976501,453.795746 836.684998,442.247131 
	C837.388550,442.465881 837.661987,442.695679 837.990479,442.977783 
	C838.045654,443.030151 838.156982,443.133820 838.098877,443.482239 
	C837.635986,446.182190 837.231323,448.533661 836.826660,450.885132 
	C834.254456,457.736633 831.682312,464.588165 828.935364,471.773376 
z"/>
<path fill="#EB8C4F" opacity="1.000000" stroke="none" 
	d="
M837.935364,442.925476 
	C837.661987,442.695679 837.388550,442.465881 836.947205,442.024506 
	C839.904724,435.061615 843.030151,428.310303 846.145203,421.581421 
	C850.957581,423.656311 849.766296,425.880219 848.543640,428.211334 
	C844.699768,435.540131 840.910583,442.897644 836.963501,450.564575 
	C837.231323,448.533661 837.635986,446.182190 838.198364,443.408173 
	C838.356079,442.985657 838.274597,442.597473 838.274597,442.597473 
	C838.274597,442.597473 837.935364,442.925476 837.935364,442.925476 
M839.514465,439.863617 
	C839.514465,439.863617 839.426086,440.127258 839.426086,440.127258 
	C839.426086,440.127258 839.618225,439.963257 839.514465,439.863617 
z"/>
<path fill="#E98C4F" opacity="1.000000" stroke="none" 
	d="
M1115.134277,489.527222 
	C1115.846069,488.575562 1116.853149,488.174835 1117.108765,487.492645 
	C1118.841064,482.866791 1120.414551,478.181458 1122.306396,473.239197 
	C1121.378906,479.279694 1120.010132,485.571472 1119.101440,491.928955 
	C1118.845215,493.721619 1117.576294,496.911224 1121.641602,497.046051 
	C1121.909302,497.054932 1122.133789,498.370758 1122.378296,499.078735 
	C1121.230957,499.335297 1119.821899,500.149445 1118.980469,499.754425 
	C1114.750366,497.768341 1114.815430,493.852051 1115.134277,489.527222 
z"/>
<path fill="#A47A56" opacity="1.000000" stroke="none" 
	d="
M1028.151001,474.997131 
	C1028.852905,475.000305 1029.554810,475.003479 1030.607422,474.989441 
	C1027.899658,481.368500 1023.820129,486.661377 1016.221802,488.156128 
	C1016.000732,487.462555 1016.007629,487.011017 1016.000427,485.969849 
	C1015.977539,485.213318 1015.968750,485.046326 1015.959900,484.879364 
	C1015.959900,484.879364 1015.965942,484.967316 1016.285645,484.966980 
	C1018.225830,483.949890 1020.027405,483.133820 1021.426270,481.871490 
	C1023.801514,479.728119 1025.922852,477.303528 1028.151001,474.997131 
z"/>
<path fill="#B17D55" opacity="1.000000" stroke="none" 
	d="
M1146.262695,434.431824 
	C1145.769775,433.952393 1145.748169,433.564331 1145.745605,432.982239 
	C1151.598511,432.566437 1157.432495,432.344666 1163.715820,432.303833 
	C1163.666016,433.610535 1163.166992,434.736328 1162.361450,435.946228 
	C1156.947998,435.527954 1151.841064,435.025604 1146.262695,434.431824 
z"/>
<path fill="#EB8C4F" opacity="1.000000" stroke="none" 
	d="
M1246.802734,483.866364 
	C1248.696777,483.616333 1250.751953,483.145172 1252.035278,483.932220 
	C1252.858887,484.437286 1252.942627,486.900269 1252.579590,488.280975 
	C1252.389771,489.002411 1249.664673,489.856110 1249.540405,489.671356 
	C1248.391479,487.962067 1247.560181,486.039215 1246.802734,483.866364 
z"/>
<path fill="#E98C4F" opacity="1.000000" stroke="none" 
	d="
M1230.878662,482.439545 
	C1231.706909,482.607971 1232.506104,482.685852 1232.577271,482.955719 
	C1233.083496,484.874573 1233.440552,486.832733 1233.845215,488.778351 
	C1232.189697,488.589935 1229.833740,489.015137 1229.021606,488.088043 
	C1227.219360,486.030426 1227.010864,483.526489 1230.878662,482.439545 
z"/>
<path fill="#EB8C4F" opacity="1.000000" stroke="none" 
	d="
M1243.470703,488.300262 
	C1241.587891,488.537323 1239.544067,489.018433 1238.391479,488.217194 
	C1237.517822,487.609863 1237.398315,485.283783 1237.706665,483.891510 
	C1237.849487,483.246307 1240.618408,482.409790 1240.813354,482.675415 
	C1241.994995,484.285095 1242.777100,486.188049 1243.470703,488.300262 
z"/>
<path fill="#E98C4F" opacity="1.000000" stroke="none" 
	d="
M957.562317,440.558838 
	C958.405945,438.949738 959.037476,437.597107 959.668945,436.244476 
	C960.539551,436.922363 961.410095,437.600250 962.280701,438.278137 
	C960.624268,441.126465 959.003540,443.997253 957.250671,446.784973 
	C957.092346,447.036774 955.782471,446.985535 955.533264,446.665527 
	C955.104187,446.114624 954.727661,445.078735 954.971924,444.535431 
	C955.568970,443.207397 956.533569,442.044617 957.562317,440.558838 
z"/>
<path fill="#E98C4F" opacity="1.000000" stroke="none" 
	d="
M1148.425903,437.779541 
	C1149.650146,439.658630 1146.690918,446.768799 1144.777222,446.994568 
	C1144.239502,447.058014 1143.297607,446.684082 1143.136719,446.275970 
	C1142.873047,445.607452 1142.791626,444.524841 1143.168701,444.005737 
	C1144.706299,441.889252 1146.447021,439.920441 1148.425903,437.779541 
z"/>
<path fill="#E98C4F" opacity="1.000000" stroke="none" 
	d="
M865.583252,446.068298 
	C867.258118,442.882172 869.095886,439.964233 871.608459,435.975006 
	C872.575012,441.939178 869.254395,446.611847 865.583252,446.068298 
z"/>
<path fill="#A47A56" opacity="1.000000" stroke="none" 
	d="
M824.776611,477.681030 
	C824.745911,478.077759 824.684875,478.491791 824.623901,478.905792 
	C824.588684,478.903412 824.553528,478.901031 824.518311,478.898621 
	C824.543518,478.635101 824.568665,478.371582 824.653442,477.872314 
	C824.713074,477.636566 824.746216,477.698303 824.776611,477.681030 
z"/>
<path fill="#E98C4F" opacity="1.000000" stroke="none" 
	d="
M1132.008423,440.997253 
	C1131.765137,440.980865 1131.512939,440.973602 1130.882202,440.957214 
	C1130.667725,440.594238 1130.831909,440.240326 1131.157227,439.643372 
	C1131.318237,439.400299 1131.652710,439.670258 1131.806641,440.080078 
	C1131.969360,440.669159 1131.978027,440.848419 1131.986572,441.027649 
	C1131.986572,441.027649 1131.999634,441.006348 1132.008423,440.997253 
z"/>
<path fill="#285C63" opacity="1.000000" stroke="none" 
	d="
M854.086487,396.675537 
	C854.074219,385.875732 854.166504,375.545837 854.016724,365.219421 
	C853.970032,362.004913 855.000793,360.643768 858.296265,360.877411 
	C861.114319,361.077179 863.958496,360.874023 866.789185,360.936005 
	C874.743408,361.110138 879.460144,364.291107 880.443787,371.984589 
	C881.250916,378.298004 880.747070,384.892395 879.968079,391.257477 
	C879.397888,395.917175 875.862244,399.028778 871.131287,399.579193 
	C866.361267,400.134125 861.494080,400.043793 856.682068,399.875519 
	C855.789856,399.844299 854.957581,398.100281 854.086487,396.675537 
z"/>
<path fill="#285C63" opacity="1.000000" stroke="none" 
	d="
M854.065308,348.947327 
	C854.065308,341.181610 854.065308,333.906738 854.065308,325.924255 
	C862.060608,326.947693 870.714050,322.721985 876.108704,330.181702 
	C881.209595,337.235199 880.865662,346.105560 876.846497,353.500580 
	C871.961365,362.489227 862.579224,357.826172 854.065308,359.300537 
	C854.065308,355.581421 854.065308,352.509766 854.065308,348.947327 
z"/>
<path fill="#345E61" opacity="1.000000" stroke="none" 
	d="
M1226.431152,435.402466 
	C1220.089355,444.579773 1213.951538,453.451355 1207.798096,462.311981 
	C1206.951538,463.530975 1206.027100,464.695831 1204.601196,465.432373 
	C1209.510986,448.702362 1218.854492,434.954254 1230.940552,422.980438 
	C1231.389771,423.229462 1231.838867,423.478455 1232.287964,423.727478 
	C1230.401978,427.516083 1228.516113,431.304688 1226.431152,435.402466 
z"/>
<path fill="#345E61" opacity="1.000000" stroke="none" 
	d="
M1147.050903,482.114655 
	C1147.496948,480.295532 1147.874023,478.873047 1148.300171,477.265350 
	C1153.472900,477.425110 1154.167480,481.125275 1154.525879,484.724152 
	C1155.158813,491.077576 1150.004272,499.270477 1143.125000,501.206970 
	C1144.510132,494.492859 1145.745972,488.502075 1147.050903,482.114655 
z"/>
<path fill="#275B62" opacity="1.000000" stroke="none" 
	d="
M1136.204590,473.532440 
	C1136.051025,473.592255 1135.597900,473.290253 1135.218994,472.722839 
	C1135.497192,472.695190 1135.701050,472.932922 1136.204590,473.532440 
z"/>
<path fill="#275B62" opacity="1.000000" stroke="none" 
	d="
M1178.821533,467.278381 
	C1178.825562,467.571747 1178.608276,467.648010 1178.390869,467.724304 
	C1178.460571,467.503296 1178.530273,467.282288 1178.821533,467.278381 
z"/>
<path fill="#275B62" opacity="1.000000" stroke="none" 
	d="
M1024.175903,471.227234 
	C1021.537720,473.695953 1019.161865,475.919952 1016.511047,478.401276 
	C1015.510437,471.180115 1024.445068,458.426758 1031.974487,455.975220 
	C1033.708984,460.041107 1033.410889,463.606903 1029.897095,466.615662 
	C1028.128174,468.130432 1026.260986,469.530548 1024.175903,471.227234 
z"/>
<path fill="#345E61" opacity="1.000000" stroke="none" 
	d="
M1025.088379,444.162231 
	C1030.191162,437.043060 1035.142578,430.261444 1040.094116,423.479858 
	C1040.730225,423.930115 1041.366333,424.380371 1042.002319,424.830627 
	C1037.565308,435.383698 1030.062256,443.930634 1022.994141,452.762177 
	C1022.611328,452.590546 1022.228455,452.418884 1021.845642,452.247253 
	C1022.876160,449.664764 1023.906677,447.082306 1025.088379,444.162231 
z"/>
<path fill="#345E61" opacity="1.000000" stroke="none" 
	d="
M1052.942627,455.756500 
	C1054.243530,454.911896 1055.302002,454.351807 1056.594604,453.667908 
	C1057.043701,458.955750 1053.484741,463.282959 1046.469360,465.161743 
	C1048.546387,462.121521 1050.623291,459.081299 1052.942627,455.756500 
z"/>
<path fill="#345E61" opacity="1.000000" stroke="none" 
	d="
M1028.181274,474.674377 
	C1025.922852,477.303528 1023.801514,479.728119 1021.426270,481.871490 
	C1020.027405,483.133820 1018.225830,483.949890 1016.241699,484.969910 
	C1019.633484,480.659607 1023.389038,476.346039 1027.698730,472.078003 
	C1028.424194,472.247589 1028.595825,472.371674 1028.767334,472.495728 
	C1028.582153,473.114380 1028.396851,473.733032 1028.181274,474.674377 
z"/>
<path fill="#345E61" opacity="1.000000" stroke="none" 
	d="
M1080.082275,455.064819 
	C1078.406982,457.063049 1076.731812,459.061279 1074.639038,461.122894 
	C1074.221436,461.186279 1073.858276,460.879974 1073.858276,460.879974 
	C1075.522827,458.840698 1077.187378,456.801422 1079.296753,454.748199 
	C1079.741577,454.734253 1080.082275,455.064850 1080.082275,455.064819 
z"/>
<path fill="#345E61" opacity="1.000000" stroke="none" 
	d="
M1072.387695,462.463593 
	C1072.712402,462.017120 1073.037109,461.570618 1073.610107,461.002075 
	C1073.858276,460.879974 1074.221436,461.186279 1074.401855,461.342285 
	C1074.248535,461.949982 1073.914673,462.401733 1073.151245,462.804016 
	C1072.721680,462.754578 1072.387695,462.463593 1072.387695,462.463593 
z"/>
<path fill="#345E61" opacity="1.000000" stroke="none" 
	d="
M1079.571533,454.568604 
	C1079.796509,454.287262 1080.191772,454.171539 1080.586914,454.055786 
	C1080.540039,454.334412 1080.493286,454.613007 1080.264404,454.978210 
	C1080.082275,455.064850 1079.741577,454.734253 1079.571533,454.568604 
z"/>
<path fill="#345E61" opacity="1.000000" stroke="none" 
	d="
M1015.734497,484.899963 
	C1015.968750,485.046326 1015.977539,485.213318 1015.987061,485.631042 
	C1015.828247,485.561432 1015.668640,485.240997 1015.734497,484.899963 
z"/>
<path fill="#345E61" opacity="1.000000" stroke="none" 
	d="
M1027.999268,471.932190 
	C1028.133545,471.831207 1028.521240,471.921570 1028.838135,472.253845 
	C1028.595825,472.371674 1028.424194,472.247589 1027.999268,471.932190 
z"/>
<path fill="#345E61" opacity="1.000000" stroke="none" 
	d="
M1071.966919,463.977966 
	C1071.819336,464.158264 1071.671631,464.338531 1071.523926,464.518768 
	C1071.582642,464.320587 1071.641235,464.122406 1071.860352,463.973267 
	C1072.020874,464.022278 1071.966919,463.977966 1071.966919,463.977966 
z"/>
<path fill="#345E61" opacity="1.000000" stroke="none" 
	d="
M1072.047852,464.044373 
	C1072.073364,463.696106 1072.072021,463.325714 1072.229248,462.709473 
	C1072.387695,462.463593 1072.721680,462.754578 1072.885010,462.904114 
	C1072.858887,463.332550 1072.669312,463.611420 1072.223389,463.934143 
	C1071.966919,463.977966 1072.020874,464.022278 1072.047852,464.044373 
z"/>
<path fill="#275B62" opacity="1.000000" stroke="none" 
	d="
M1081.702148,459.834137 
	C1081.444092,459.837616 1081.377197,459.646851 1081.310181,459.456085 
	C1081.504517,459.517365 1081.698853,459.578613 1081.702148,459.834137 
z"/>
<path fill="#275B62" opacity="1.000000" stroke="none" 
	d="
M1025.804688,454.727600 
	C1025.562744,454.729614 1025.500854,454.546997 1025.438843,454.364380 
	C1025.620728,454.423889 1025.802734,454.483429 1025.804688,454.727600 
z"/>
<path fill="#285C63" opacity="1.000000" stroke="none" 
	d="
M306.668671,354.646057 
	C307.850494,351.141510 308.897827,348.007385 309.945160,344.873260 
	C310.341980,344.814758 310.738800,344.756256 311.135620,344.697754 
	C314.494934,354.730316 317.854248,364.762909 321.434143,375.454224 
	C314.009979,375.454224 307.333771,375.454224 299.875610,375.454224 
	C302.144531,368.490112 304.339386,361.753296 306.668671,354.646057 
z"/>
<path fill="#345E61" opacity="1.000000" stroke="none" 
	d="
M867.959045,490.162537 
	C869.112549,485.603271 870.197632,481.461761 871.306152,477.230774 
	C876.292725,477.391815 877.061340,480.868011 877.486450,484.365631 
	C878.235779,490.531982 873.585327,498.521301 866.809204,501.450714 
	C867.211182,497.410095 867.550903,493.995178 867.959045,490.162537 
z"/>
<path fill="#345E61" opacity="1.000000" stroke="none" 
	d="
M907.860474,461.797241 
	C905.693054,463.586792 903.774475,465.125397 901.531006,466.924530 
	C902.447205,460.454590 907.220215,454.703583 912.910706,454.439362 
	C910.994507,457.275635 909.551880,459.410950 907.860474,461.797241 
z"/>
<path fill="#345E61" opacity="1.000000" stroke="none" 
	d="
M968.220825,476.197937 
	C970.929565,474.275085 972.465881,469.419128 976.833130,473.628052 
	C974.338196,478.104095 971.380615,481.548584 964.604309,480.942291 
	C965.995178,479.083893 966.979736,477.768372 968.220825,476.197937 
z"/>
<path fill="#275B62" opacity="1.000000" stroke="none" 
	d="
M948.204468,473.532471 
	C948.050964,473.592285 947.597839,473.290283 947.218994,472.722900 
	C947.497070,472.695221 947.700928,472.932953 948.204468,473.532471 
z"/>
<path fill="#B17D55" opacity="1.000000" stroke="none" 
	d="
M1132.121338,440.920044 
	C1131.978027,440.848419 1131.969360,440.669159 1131.969116,440.220764 
	C1132.070435,440.238556 1132.163330,440.525513 1132.121338,440.920044 
z"/>
<path fill="#A47A56" opacity="1.000000" stroke="none" 
	d="
M839.566345,439.913452 
	C839.618225,439.963257 839.426086,440.127258 839.426086,440.127258 
	C839.426086,440.127258 839.514465,439.863617 839.566345,439.913452 
z"/>
<path fill="#A47A56" opacity="1.000000" stroke="none" 
	d="
M837.990479,442.977814 
	C837.935364,442.925476 838.274597,442.597473 838.274597,442.597473 
	C838.274597,442.597473 838.356079,442.985657 838.256531,443.059753 
	C838.156982,443.133820 838.045654,443.030151 837.990479,442.977814 
z"/>
</svg>